<?xml version="1.0" encoding="UTF-8"?>
<!DOCTYPE svg PUBLIC "-//W3C//DTD SVG 1.1//EN" "http://www.w3.org/Graphics/SVG/1.1/DTD/svg11.dtd">
<svg xmlns="http://www.w3.org/2000/svg" version="1.1" width="512px" height="512px" style="shape-rendering:geometricPrecision; text-rendering:geometricPrecision; image-rendering:optimizeQuality; fill-rule:evenodd; clip-rule:evenodd" xmlns:xlink="http://www.w3.org/1999/xlink">
<g><path style="opacity:1" fill="#fefefe" d="M -0.5,-0.5 C 170.167,-0.5 340.833,-0.5 511.5,-0.5C 511.5,170.167 511.5,340.833 511.5,511.5C 340.833,511.5 170.167,511.5 -0.5,511.5C -0.5,340.833 -0.5,170.167 -0.5,-0.5 Z"/></g>
<g><path style="opacity:1" fill="#d90529" d="M 98.5,51.5 C 203.167,51.5 307.833,51.5 412.5,51.5C 412.5,78.5 412.5,105.5 412.5,132.5C 350.832,132.333 289.166,132.5 227.5,133C 254.7,169.233 281.533,205.733 308,242.5C 310,248.167 310,253.833 308,259.5C 279.491,298.529 250.991,337.529 222.5,376.5C 221.957,376.56 221.624,376.893 221.5,377.5C 285.163,378.5 348.83,378.833 412.5,378.5C 412.5,405.833 412.5,433.167 412.5,460.5C 307.833,460.5 203.167,460.5 98.5,460.5C 98.3334,436.164 98.5,411.831 99,387.5C 133.466,342.535 166.966,296.869 199.5,250.5C 166.821,205.144 133.655,160.144 100,115.5C 98.5225,94.2581 98.0225,72.9248 98.5,51.5 Z"/></g>
<g><path style="opacity:1" fill="#f2a0ad" d="M 98.5,51.5 C 203.332,50.5005 308.332,50.1672 413.5,50.5C 413.831,78.0051 413.498,105.338 412.5,132.5C 412.5,105.5 412.5,78.5 412.5,51.5C 307.833,51.5 203.167,51.5 98.5,51.5 Z"/></g>
<g><path style="opacity:1" fill="#f4bfc8" d="M 222.5,376.5 C 285.833,377.167 349.167,377.833 412.5,378.5C 348.83,378.833 285.163,378.5 221.5,377.5C 221.624,376.893 221.957,376.56 222.5,376.5 Z"/></g>
</svg>
