<?xml version="1.0" encoding="UTF-8"?>
<!DOCTYPE svg PUBLIC "-//W3C//DTD SVG 1.1//EN" "http://www.w3.org/Graphics/SVG/1.1/DTD/svg11.dtd">
<svg xmlns="http://www.w3.org/2000/svg" version="1.1" width="1000px" height="300px" style="shape-rendering:geometricPrecision; text-rendering:geometricPrecision; image-rendering:optimizeQuality; fill-rule:evenodd; clip-rule:evenodd" xmlns:xlink="http://www.w3.org/1999/xlink">
<g><path style="opacity:1" fill="#fefefe" d="M -0.5,-0.5 C 332.833,-0.5 666.167,-0.5 999.5,-0.5C 999.5,99.5 999.5,199.5 999.5,299.5C 666.167,299.5 332.833,299.5 -0.5,299.5C -0.5,199.5 -0.5,99.5 -0.5,-0.5 Z"/></g>
<g><path style="opacity:1" fill="#d90529" d="M 199.5,76.5 C 230.167,76.5 260.833,76.5 291.5,76.5C 291.5,84.5 291.5,92.5 291.5,100.5C 273.488,100.167 255.488,100.5 237.5,101.5C 245.923,112.581 253.923,123.914 261.5,135.5C 253.062,147.781 244.395,159.948 235.5,172C 254.164,172.5 272.83,172.667 291.5,172.5C 291.5,180.5 291.5,188.5 291.5,196.5C 260.833,196.5 230.167,196.5 199.5,196.5C 199.334,189.159 199.5,181.826 200,174.5C 209.902,161.602 219.402,148.435 228.5,135C 219.786,121.614 210.286,108.781 200,96.5C 199.5,89.8417 199.334,83.175 199.5,76.5 Z"/></g>
<g><path style="opacity:1" fill="#2e3044" d="M 311.5,120.5 C 328.833,120.5 346.167,120.5 363.5,120.5C 363.5,124.833 363.5,129.167 363.5,133.5C 351.5,133.5 339.5,133.5 327.5,133.5C 327.5,139.5 327.5,145.5 327.5,151.5C 338.5,151.5 349.5,151.5 360.5,151.5C 360.5,155.833 360.5,160.167 360.5,164.5C 349.5,164.5 338.5,164.5 327.5,164.5C 327.5,170.833 327.5,177.167 327.5,183.5C 339.5,183.5 351.5,183.5 363.5,183.5C 363.5,187.833 363.5,192.167 363.5,196.5C 346.167,196.5 328.833,196.5 311.5,196.5C 311.5,171.167 311.5,145.833 311.5,120.5 Z"/></g>
<g><path style="opacity:1" fill="#2c2e43" d="M 616.5,120.5 C 616.334,130.506 616.5,140.506 617,150.5C 617.717,149.956 618.217,149.289 618.5,148.5C 623.64,140.443 630.973,137.61 640.5,140C 646.667,142.167 650.833,146.333 653,152.5C 653.5,167.163 653.667,181.83 653.5,196.5C 648.5,196.5 643.5,196.5 638.5,196.5C 638.667,183.829 638.5,171.162 638,158.5C 636.065,154.198 632.732,152.198 628,152.5C 623.117,152.609 619.784,154.942 618,159.5C 617.5,171.829 617.333,184.162 617.5,196.5C 612.5,196.5 607.5,196.5 602.5,196.5C 602.5,171.167 602.5,145.833 602.5,120.5C 607.167,120.5 611.833,120.5 616.5,120.5 Z"/></g>
<g><path style="opacity:1" fill="#616272" d="M 616.5,120.5 C 617.167,129.833 617.833,139.167 618.5,148.5C 618.217,149.289 617.717,149.956 617,150.5C 616.5,140.506 616.334,130.506 616.5,120.5 Z"/></g>
<g><path style="opacity:1" fill="#313347" d="M 566.5,126.5 C 571.833,126.5 577.167,126.5 582.5,126.5C 582.5,131.167 582.5,135.833 582.5,140.5C 585.833,140.5 589.167,140.5 592.5,140.5C 592.5,144.167 592.5,147.833 592.5,151.5C 589.167,151.5 585.833,151.5 582.5,151.5C 582.333,162.172 582.5,172.839 583,183.5C 586.129,184.13 589.296,184.796 592.5,185.5C 593.426,189.094 593.759,192.76 593.5,196.5C 587.824,196.666 582.157,196.499 576.5,196C 571.572,194.073 568.406,190.573 567,185.5C 566.5,174.172 566.333,162.838 566.5,151.5C 563.833,151.5 561.167,151.5 558.5,151.5C 558.5,147.833 558.5,144.167 558.5,140.5C 561.167,140.5 563.833,140.5 566.5,140.5C 566.5,135.833 566.5,131.167 566.5,126.5 Z"/></g>
<g><path style="opacity:1" fill="#2c2e43" d="M 389.5,139.5 C 399.415,137.738 406.915,141.071 412,149.5C 412.498,146.518 412.665,143.518 412.5,140.5C 417.5,140.5 422.5,140.5 427.5,140.5C 427.5,166.167 427.5,191.833 427.5,217.5C 422.5,217.5 417.5,217.5 412.5,217.5C 412.666,207.494 412.5,197.494 412,187.5C 404.571,198.171 395.071,200.338 383.5,194C 375.607,186.797 371.94,177.797 372.5,167C 372.74,154.332 378.406,145.166 389.5,139.5 Z"/></g>
<g><path style="opacity:1" fill="#2d2f44" d="M 537.5,196.5 C 537.813,193.753 537.48,191.086 536.5,188.5C 535.893,188.624 535.56,188.957 535.5,189.5C 531.898,195.301 526.565,197.968 519.5,197.5C 505.249,196.401 499.416,188.734 502,174.5C 504.641,169.856 508.475,166.689 513.5,165C 521.13,163.788 528.63,162.288 536,160.5C 537.141,155.616 535.308,152.45 530.5,151C 525.657,149.786 521.49,150.953 518,154.5C 517.517,155.448 517.351,156.448 517.5,157.5C 501.841,159.311 499.508,154.811 510.5,144C 521.782,138.146 533.115,138.146 544.5,144C 547.543,146.593 549.71,149.76 551,153.5C 551.5,167.829 551.667,182.163 551.5,196.5C 546.833,196.5 542.167,196.5 537.5,196.5 Z"/></g>
<g><path style="opacity:1" fill="#2d2f44" d="M 684.5,139.5 C 709.329,138.162 720.829,149.829 719,174.5C 714.624,191.848 703.457,199.348 685.5,197C 675.106,194.274 668.273,187.774 665,177.5C 661.263,159.302 667.763,146.635 684.5,139.5 Z"/></g>
<g><path style="opacity:1" fill="#2d2f44" d="M 803.5,196.5 C 803.813,193.753 803.48,191.086 802.5,188.5C 801.893,188.624 801.56,188.957 801.5,189.5C 797.898,195.301 792.565,197.968 785.5,197.5C 771.249,196.401 765.416,188.734 768,174.5C 770.641,169.856 774.475,166.689 779.5,165C 787.13,163.788 794.63,162.288 802,160.5C 803.141,155.616 801.308,152.45 796.5,151C 791.657,149.786 787.49,150.953 784,154.5C 783.517,155.448 783.351,156.448 783.5,157.5C 767.841,159.311 765.508,154.811 776.5,144C 787.782,138.146 799.115,138.146 810.5,144C 813.543,146.593 815.71,149.76 817,153.5C 817.5,167.829 817.667,182.163 817.5,196.5C 812.833,196.5 808.167,196.5 803.5,196.5 Z"/></g>
<g><path style="opacity:1" fill="#2c2e43" d="M 477.5,196.5 C 477.665,192.818 477.499,189.152 477,185.5C 476.283,186.044 475.783,186.711 475.5,187.5C 470.808,195.509 463.808,198.676 454.5,197C 446.886,195.053 442.386,190.22 441,182.5C 440.5,168.504 440.333,154.504 440.5,140.5C 445.5,140.5 450.5,140.5 455.5,140.5C 455.333,153.171 455.5,165.838 456,178.5C 459.717,184.567 464.884,186.067 471.5,183C 473.81,181.363 475.31,179.196 476,176.5C 476.5,164.505 476.667,152.505 476.5,140.5C 481.5,140.5 486.5,140.5 491.5,140.5C 491.5,159.167 491.5,177.833 491.5,196.5C 486.833,196.5 482.167,196.5 477.5,196.5 Z"/></g>
<g><path style="opacity:1" fill="#2e3045" d="M 754.5,139.5 C 757.5,139.5 760.5,139.5 763.5,139.5C 763.827,144.214 763.493,148.88 762.5,153.5C 754.369,151.149 748.535,153.816 745,161.5C 744.5,173.162 744.333,184.829 744.5,196.5C 739.5,196.5 734.5,196.5 729.5,196.5C 729.5,177.833 729.5,159.167 729.5,140.5C 734.5,140.5 739.5,140.5 744.5,140.5C 744.335,143.518 744.502,146.518 745,149.5C 747.022,144.98 750.189,141.647 754.5,139.5 Z"/></g>
<g><path style="opacity:1" fill="#f9f9fa" d="M 687.5,151.5 C 701.359,152.224 706.859,159.557 704,173.5C 701.745,183.878 695.579,187.378 685.5,184C 679.53,176.727 678.03,168.56 681,159.5C 682.305,156.039 684.471,153.372 687.5,151.5 Z"/></g>
<g><path style="opacity:1" fill="#f9f9fa" d="M 396.5,151.5 C 404.419,150.703 409.586,154.036 412,161.5C 413.356,168.576 412.356,175.243 409,181.5C 399.71,188.268 393.043,186.268 389,175.5C 387.859,168.916 388.526,162.583 391,156.5C 392.73,154.598 394.563,152.931 396.5,151.5 Z"/></g>
<g><path style="opacity:1" fill="#f6f6f7" d="M 534.5,170.5 C 538.44,179.915 535.106,185.248 524.5,186.5C 519.277,187.235 516.277,185.068 515.5,180C 515.643,177.849 516.643,176.182 518.5,175C 523.863,173.163 529.196,171.663 534.5,170.5 Z"/></g>
<g><path style="opacity:1" fill="#f6f6f7" d="M 800.5,170.5 C 804.44,179.915 801.106,185.248 790.5,186.5C 785.277,187.235 782.277,185.068 781.5,180C 781.643,177.849 782.643,176.182 784.5,175C 789.863,173.163 795.196,171.663 800.5,170.5 Z"/></g>
<g><path style="opacity:1" fill="#7f808d" d="M 535.5,189.5 C 535.56,188.957 535.893,188.624 536.5,188.5C 537.48,191.086 537.813,193.753 537.5,196.5C 536.833,194.167 536.167,191.833 535.5,189.5 Z"/></g>
<g><path style="opacity:1" fill="#7f808d" d="M 801.5,189.5 C 801.56,188.957 801.893,188.624 802.5,188.5C 803.48,191.086 803.813,193.753 803.5,196.5C 802.833,194.167 802.167,191.833 801.5,189.5 Z"/></g>
<g><path style="opacity:1" fill="#94959f" d="M 477.5,196.5 C 476.833,193.5 476.167,190.5 475.5,187.5C 475.783,186.711 476.283,186.044 477,185.5C 477.499,189.152 477.665,192.818 477.5,196.5 Z"/></g>
</svg>
