<svg width="1081" height="841" viewBox="0 0 1081 841" fill="none" xmlns="http://www.w3.org/2000/svg">
<g clip-path="url(#clip0_179_1047)">
<path d="M979.66 689.32C969.5 678.51 945.99 669.25 914.5 663.12V523.8H913.06V522.36H887.06V523.8H846.21C849.87 502.72 862.08 429.22 859.62 399.7C859.62 399.7 891.36 313.13 865.39 240.98C865.39 240.98 891.39 246.75 894.25 217.89C896.58 194.59 923.33 143.11 892.61 113.49C885.4 105.93 874.68 99.6802 859.2 95.4902L851.69 74.4902C856.59 66.7402 859.62 56.2802 859.62 44.7502C859.62 29.2202 854.16 15.6102 845.98 7.97022C841.27 2.97022 835.52 -0.0297852 829.31 -0.0297852C824.581 0.0427348 820.009 1.6816 816.31 4.63022C816.85 5.04022 817.37 5.48021 817.89 5.94021C808.4 13.0302 801.89 27.7202 801.89 44.7002C801.89 57.5502 805.64 69.0602 811.57 76.9902L807.66 102.42C807.66 102.42 726.86 82.2502 761.5 217.89C761.5 217.89 770.16 240.98 784.59 240.98C784.59 240.98 775.93 344.87 790.36 382.39C790.36 382.39 784.59 474.74 796.14 494.94V523.8H723.98V666.7C687.04 675.16 663.37 688.15 663.37 702.7C663.37 728.21 735.73 748.88 824.99 748.88C914.25 748.88 986.6 728.25 986.6 702.73C986.6 698.07 984.16 693.57 979.66 689.32Z" fill="#F2F2F2"/>
<path d="M410.92 704.46C401.49 694.4 379.59 685.79 350.24 680.08V550.43H348.9V549.09H324.73V550.43H286.73C290.14 530.82 301.5 462.43 299.21 434.95C299.21 434.95 328.75 354.38 304.58 287.24C304.58 287.24 328.75 292.61 331.44 265.76C333.61 244.08 358.5 196.17 329.91 168.61C323.2 161.61 313.23 155.76 298.83 151.88L291.83 132.3C296.4 125.08 299.21 115.36 299.21 104.62C299.21 90.17 294.14 77.51 286.52 70.4C282.14 65.74 276.79 63 271.01 63C266.614 63.0697 262.365 64.5961 258.93 67.34C259.43 67.72 259.93 68.13 260.4 68.55C251.57 75.15 245.5 88.82 245.5 104.62C245.5 116.62 249 127.29 254.5 134.62L250.86 158.28C250.86 158.28 175.67 139.48 207.86 265.71C207.86 265.71 215.92 287.19 229.35 287.19C229.35 287.19 221.29 383.87 234.72 418.79C234.72 418.79 229.35 504.73 240.09 523.53V550.38H172.99V683.38C138.62 691.25 116.59 703.38 116.59 716.91C116.59 740.64 183.93 759.91 266.99 759.91C350.05 759.91 417.38 740.67 417.38 716.91C417.38 712.6 415.11 708.41 410.92 704.46Z" fill="#F2F2F2"/>
<path d="M632.19 697.69C625.19 690.19 608.85 683.78 586.99 679.53V582.97H585.99V581.97H567.99V582.97H539.69C542.23 568.36 550.69 517.41 548.99 496.97C548.99 496.97 570.99 436.97 552.99 386.97C552.99 386.97 570.99 390.97 572.99 370.97C574.61 354.82 593.15 319.14 571.85 298.61C566.85 293.37 559.43 289.04 548.7 286.15L543.5 271.54C547.215 265.312 549.119 258.171 549 250.92C549 240.16 545.22 230.73 539.54 225.43C536.28 221.96 532.3 219.92 528 219.92C524.724 219.974 521.559 221.114 519 223.16C519.38 223.44 519.74 223.74 520.1 224.06C513.52 228.97 509 239.15 509 250.92C509 259.83 511.61 267.81 515.72 273.3L513 290.93C513 290.93 457 276.93 481 370.93C481 370.93 487 386.93 497 386.93C497 386.93 491 458.93 501 484.93C501 484.93 497 548.93 505 562.93V582.93H455V681.93C429.4 687.79 413 696.8 413 706.93C413 724.61 463.15 738.93 525 738.93C586.85 738.93 637 724.6 637 706.93C637 703.75 635.31 700.63 632.19 697.69Z" fill="#F2F2F2"/>
<path d="M1040.16 714.07C1036.02 709.65 1026.41 705.87 1013.53 703.36V646.46H1012.94V645.87H1002.33V646.46H985.65C987.15 637.85 992.14 607.82 991.13 595.77C991.13 595.77 1004.13 560.4 993.49 530.93C993.49 530.93 1004.1 533.29 1005.28 521.5C1006.28 511.99 1017.16 490.96 1004.61 478.86C1001.66 475.77 997.28 473.22 990.96 471.52L987.89 462.92C990.082 459.252 991.205 455.043 991.13 450.77C991.13 444.43 988.9 438.87 985.56 435.77C984.713 434.785 983.67 433.987 982.497 433.428C981.325 432.868 980.048 432.559 978.75 432.52C976.821 432.554 974.957 433.226 973.45 434.43C973.672 434.595 973.886 434.772 974.09 434.96C970.22 437.85 967.56 443.85 967.56 450.79C967.465 455.499 968.866 460.117 971.56 463.98L969.96 474.37C969.96 474.37 936.96 466.12 951.1 521.52C951.1 521.52 954.64 530.95 960.53 530.95C960.53 530.95 957 573.39 962.89 588.71C962.89 588.71 960.53 626.44 965.25 634.71V646.5H935.73V704.87C920.64 708.32 910.97 713.63 910.97 719.58C910.97 730 940.53 738.45 976.97 738.45C1013.41 738.45 1042.97 730 1042.97 719.58C1043 717.64 1042 715.8 1040.16 714.07Z" fill="#F2F2F2"/>
<path d="M180.16 714.07C176.02 709.65 166.41 705.87 153.53 703.36V646.46H152.94V645.87H142.33V646.46H125.65C127.15 637.85 132.14 607.82 131.13 595.77C131.13 595.77 144.13 560.4 133.49 530.93C133.49 530.93 144.1 533.29 145.28 521.5C146.23 511.99 157.16 490.96 144.61 478.86C141.61 475.77 137.28 473.22 130.96 471.52L127.89 462.92C130.082 459.252 131.205 455.043 131.13 450.77C131.13 444.43 128.9 438.87 125.56 435.77C124.713 434.785 123.67 433.987 122.497 433.428C121.325 432.868 120.048 432.559 118.75 432.52C116.821 432.554 114.957 433.226 113.45 434.43C113.672 434.595 113.886 434.772 114.09 434.96C110.22 437.85 107.56 443.85 107.56 450.79C107.452 455.486 108.831 460.095 111.5 463.96L109.9 474.35C109.9 474.35 76.8997 466.1 91.0397 521.5C91.0397 521.5 94.5797 530.93 100.47 530.93C100.47 530.93 96.9397 573.37 102.83 588.69C102.83 588.69 100.47 626.42 105.19 634.69V646.48H75.7297V704.85C60.6397 708.3 50.9697 713.61 50.9697 719.56C50.9697 729.98 80.5297 738.43 116.97 738.43C153.41 738.43 182.97 729.98 182.97 719.56C183 717.64 182 715.8 180.16 714.07Z" fill="#F2F2F2"/>
<path d="M0 718.38H1081C1081 718.38 1041 827.1 938.53 788.38C836.06 749.66 774.82 795.88 718.58 817.12C662.34 838.36 549.87 854.62 521.13 822.12C492.39 789.62 466.13 774.63 364.92 787.12C263.71 799.61 197.45 825.86 184.92 790.87C172.39 755.88 169.92 744.63 98.69 750.87C27.46 757.11 0 718.38 0 718.38Z" fill="#2B2D42"/>
<path d="M634.74 369.95C622.6 390.59 620.74 415.43 616.65 439.01C610.23 475.55 597.65 510.79 591.31 547.35C589.1 560.14 587.67 573.11 584.16 585.6C579.34 602.76 570.74 618.6 562.67 634.45C548.93 661.53 536.46 689.69 531.33 719.62C529.73 728.95 530.98 741.62 540.22 743.62C542.86 744.21 545.83 743.74 548.08 745.24C549.4 746.11 550.24 747.52 551.3 748.69C555.36 753.17 562.35 753.69 568.15 752.06C573.95 750.43 579.01 746.85 584.39 744.06C605.75 733.06 631.07 734.37 655.03 735.93C659.44 736.21 664.39 736.76 667.18 740.2C668.59 741.95 669.18 744.2 670.23 746.2C673.95 753.45 683.77 756.82 691.15 753.38C693.91 752.09 696.28 750.02 699.15 748.96C707.92 745.69 717.15 752.78 726.54 752.83C740.04 752.89 750.2 738.59 763.69 738.1C772.89 737.77 781.3 744.04 790.5 744.1C797.4 744.1 803.76 740.62 809.76 737.23L850.76 714.07C839.799 698.74 826.374 685.332 811.03 674.39C799.74 666.39 796.69 650.39 789.8 638.39C785.25 630.45 780.65 622.39 778.43 613.52C776.83 607.12 776.51 600.46 774.93 594.05C772.74 585.21 768.23 577.16 764.65 568.79C750.45 535.63 750.93 497.79 737.92 464.14C734.26 454.66 729.55 445.59 726.3 435.96C722.02 423.28 720.35 409.84 716.03 397.18C711.71 384.52 704.03 372.09 691.78 366.64C686.465 364.454 680.804 363.225 675.06 363.01C660.75 362.09 648.02 364.55 634.74 369.95Z" fill="#3F3D56"/>
<path d="M688.1 201.78H631.06V277.84H688.1V201.78Z" fill="#FBC661"/>
<path d="M686.56 260.78C683.66 260.33 680.7 260.78 677.77 260.78C670.56 260.69 668.51 269.4 661.32 270.11C652.55 270.97 640.39 265.42 633.06 270.32C631.72 271.254 630.301 272.07 628.82 272.76C622.82 275.4 615.49 274.42 610 278.01C604.51 281.6 602.5 288.69 602.5 295.25C602.363 297.597 602.703 299.948 603.5 302.16C604.27 304.03 605.55 305.65 606.32 307.52C606.86 308.84 607.14 310.25 607.59 311.61C608.816 314.724 610.501 317.636 612.59 320.25L625.29 337.92C628.62 342.56 627.29 348.3 627.83 353.99C628.23 358.36 629.25 362.68 629.24 367.06C629.23 371.44 628.03 376.06 624.76 379.06C632.28 378.6 639.777 377.91 647.25 376.99C653.41 376.23 659.55 375.32 665.74 374.88C678.74 373.96 691.8 375.15 704.74 376.34C702.6 373.68 701.63 369.97 701.1 366.6C699.34 355.42 698.23 343.71 701.91 333.01C703.091 329.811 704.478 326.691 706.06 323.67L710.01 315.72C715.6 304.48 720.82 292.96 722.01 280.46C722.457 277.251 722.075 273.98 720.9 270.96C719.17 267.09 715.43 264.37 711.4 263.05C707.309 261.884 703.032 261.511 698.8 261.95C694.86 262.14 690.5 261.38 686.56 260.78Z" fill="#3F3D56"/>
<path d="M645.5 255.52C646.41 257.9 647.5 260.45 646.79 262.91C645.47 267.79 638.73 268.78 635.79 272.91C635.534 273.19 635.357 273.533 635.278 273.904C635.199 274.275 635.221 274.66 635.34 275.02C635.481 275.261 635.664 275.474 635.88 275.65C641.37 280.43 649.31 280.84 656.59 280.76C667.2 280.66 678.53 279.76 686.94 273.33C689.29 271.53 691.5 268.53 690.3 265.82C689.37 263.75 686.92 262.97 684.89 261.95C680.34 259.66 677.08 255.3 675.28 250.53C673.48 245.76 673.02 240.61 672.94 235.53C673.021 234.661 672.833 233.788 672.4 233.03C671.7 232.03 670.4 231.88 669.17 231.8C662.317 231.342 655.435 231.617 648.64 232.62C646.72 232.9 643.06 233.16 641.71 234.73C640.36 236.3 641.14 238.16 641.4 239.87C642.212 245.216 643.586 250.462 645.5 255.52Z" fill="#FBB3B2"/>
<path opacity="0.05" d="M645.5 255.52C646.41 257.9 647.5 260.45 646.79 262.91C645.47 267.79 638.73 268.78 635.79 272.91C635.534 273.19 635.357 273.533 635.278 273.904C635.199 274.275 635.221 274.66 635.34 275.02C635.481 275.261 635.664 275.474 635.88 275.65C641.37 280.43 649.31 280.84 656.59 280.76C667.2 280.66 678.53 279.76 686.94 273.33C689.29 271.53 691.5 268.53 690.3 265.82C689.37 263.75 686.92 262.97 684.89 261.95C680.34 259.66 677.08 255.3 675.28 250.53C673.48 245.76 673.02 240.61 672.94 235.53C673.021 234.661 672.833 233.788 672.4 233.03C671.7 232.03 670.4 231.88 669.17 231.8C662.317 231.342 655.435 231.617 648.64 232.62C646.72 232.9 643.06 233.16 641.71 234.73C640.36 236.3 641.14 238.16 641.4 239.87C642.212 245.216 643.586 250.462 645.5 255.52Z" fill="black"/>
<path d="M658.41 245.82C672.554 245.82 684.02 234.354 684.02 220.21C684.02 206.066 672.554 194.6 658.41 194.6C644.266 194.6 632.8 206.066 632.8 220.21C632.8 234.354 644.266 245.82 658.41 245.82Z" fill="#FBB3B2"/>
<path opacity="0.1" d="M682.83 749C680.804 749.89 678.865 750.968 677.04 752.22C679.298 753.645 681.87 754.499 684.532 754.708C687.194 754.917 689.867 754.475 692.32 753.42C694.26 752.51 696 751.22 697.86 750.17C692.74 748.57 687.71 747.18 682.83 749Z" fill="black"/>
<path opacity="0.1" d="M568.09 744.11C563.76 746.33 559.63 749.04 555.16 750.89C559.22 753.31 564.65 753.42 569.32 752.07C575.12 750.38 580.18 746.86 585.55 744.07C597.27 738.07 610.19 735.72 623.41 735.07C604.25 734.43 584.94 735.45 568.09 744.11Z" fill="black"/>
<path opacity="0.1" d="M812.18 674.38C800.89 666.38 797.851 650.38 790.951 638.38C786.401 630.44 781.801 622.38 779.581 613.51C777.981 607.11 777.661 600.45 776.081 594.04C773.901 585.2 769.39 577.15 765.81 568.78C751.61 535.62 752.081 497.78 739.081 464.13C735.411 454.65 730.701 445.58 727.451 435.95C723.181 423.27 721.45 409.83 717.18 397.17C712.91 384.51 705.18 372.08 692.93 366.63C687.7 364.29 681.931 363.38 676.211 363C671.385 362.681 666.542 362.764 661.73 363.25C666.472 363.646 671.12 364.794 675.5 366.65C687.72 372.1 695.43 384.53 699.75 397.19C704.07 409.85 705.751 423.29 710.021 435.97C713.271 445.6 718.021 454.67 721.641 464.15C734.641 497.8 734.17 535.64 748.37 568.8C751.96 577.17 756.471 585.22 758.651 594.06C760.231 600.47 760.551 607.13 762.151 613.53C764.371 622.4 768.971 630.46 773.521 638.4C780.411 650.4 783.46 666.34 794.75 674.4C810.1 685.334 823.531 698.736 834.5 714.06L793.5 737.22C790.072 739.273 786.476 741.033 782.75 742.48C785.652 743.469 788.686 744.012 791.75 744.09C798.64 744.09 805 740.61 811 737.22L852 714.06C841.015 698.72 827.558 685.311 812.18 674.38Z" fill="black"/>
<path opacity="0.1" d="M747.37 738.14C736.8 738.52 728.27 747.39 718.57 751.14C721.511 752.133 724.579 752.703 727.68 752.83C738.54 752.83 747.24 743.64 757.25 739.77C754.075 738.665 750.733 738.114 747.37 738.14Z" fill="black"/>
<path d="M656.86 366.76V347.87H647.69C648.18 345.04 649.82 335.15 649.49 331.18C649.49 331.18 653.76 319.54 650.27 309.84C650.736 309.953 651.221 309.958 651.689 309.854C652.157 309.751 652.595 309.541 652.97 309.242C653.345 308.943 653.646 308.561 653.85 308.128C654.055 307.694 654.157 307.219 654.15 306.74C654.53 302.86 659.97 293.16 649.49 290.44L648.42 287.44C649.144 286.233 649.514 284.847 649.49 283.44C649.49 280.23 647.75 277.62 645.61 277.62C643.47 277.62 641.73 280.23 641.73 283.44C641.692 284.991 642.148 286.514 643.03 287.79L642.5 291.25C642.5 291.25 631.64 288.53 636.3 306.77C636.3 306.77 637.46 309.87 639.4 309.87C639.4 309.87 638.24 323.87 640.18 328.87C640.18 328.87 639.4 341.28 640.95 344V347.88H631.25V367.09C626.25 368.23 623.1 369.98 623.1 371.94C623.1 375.37 632.83 378.15 644.83 378.15C656.83 378.15 666.56 375.37 666.56 371.94C666.56 369.77 662.71 367.87 656.86 366.76Z" fill="#D90429"/>
<path opacity="0.1" d="M645.8 283.25C645.826 284.656 645.459 286.042 644.74 287.25L645.8 290.25C656.28 292.96 650.85 302.66 650.46 306.54C650.467 307.02 650.364 307.495 650.16 307.929C649.955 308.362 649.654 308.744 649.28 309.044C648.906 309.344 648.468 309.554 648 309.66C647.532 309.765 647.046 309.761 646.58 309.65C650.07 319.35 645.8 330.99 645.8 330.99C646.13 334.99 644.49 344.84 644 347.68H647.5C647.99 344.84 649.64 334.96 649.31 330.99C649.31 330.99 653.57 319.35 650.08 309.65C650.546 309.761 651.032 309.765 651.5 309.66C651.968 309.554 652.406 309.344 652.78 309.044C653.154 308.744 653.455 308.362 653.66 307.929C653.864 307.495 653.967 307.02 653.96 306.54C654.35 302.66 659.78 292.96 649.31 290.25L648.24 287.25C648.962 286.043 649.333 284.657 649.31 283.25C649.31 280.04 647.57 277.43 645.43 277.43C644.793 277.44 644.177 277.662 643.68 278.06C644.394 278.715 644.955 279.52 645.321 280.418C645.688 281.315 645.851 282.282 645.8 283.25Z" fill="black"/>
<path opacity="0.1" d="M656.67 366.56V347.68H653.18V366.56C659.02 367.68 662.88 369.56 662.88 371.73C662.88 375 654.08 377.67 642.88 377.92H644.63C656.63 377.92 666.36 375.14 666.36 371.71C666.37 369.58 662.5 367.68 656.67 366.56Z" fill="black"/>
<path d="M667.04 184.25C659.04 182.25 650.44 180.72 642.82 183.79C639.322 185.34 636.105 187.458 633.3 190.06C630.71 192.31 628.19 194.8 626.81 197.95C625.16 201.75 625.35 206.05 625.25 210.19C625.15 214.33 624.6 218.77 621.85 221.86C620.78 223.06 619.39 224.04 618.7 225.5C617.7 227.5 618.36 229.97 619.34 232C620.32 234.03 621.63 235.95 622.08 238.17C622.69 241.24 621.5 244.42 619.81 247.06C618.12 249.7 615.92 251.98 614.17 254.59C612.42 257.2 611.06 260.94 612.65 263.81C613.65 265.66 615.71 266.81 616.75 268.63C617.25 269.5 617.5 270.51 618.03 271.36C619.5 273.69 622.59 274.26 625.32 274.54C629.69 275 634.56 275.14 637.95 272.34C640.28 270.42 641.46 267.43 642.03 264.46C642.6 261.49 642.62 258.46 643.15 255.46C643.53 253.32 644.15 251.18 643.97 249.02C643.72 246.14 642.05 243.61 640.74 241.02C638.766 237.424 637.845 233.345 638.08 229.25C638.47 225.19 640.61 221.18 644.19 219.25C646.71 217.86 649.82 217.51 651.96 215.59C655.35 212.59 654.84 207.27 655.45 202.78C655.531 201.779 655.857 200.814 656.4 199.97C657.46 198.53 659.4 198.14 661.2 197.97C665.39 197.61 669.84 198.06 673.35 200.39C676.603 202.699 678.855 206.16 679.65 210.07C680.42 213.956 680.349 217.963 679.44 221.82C679.58 220.13 682.18 219.67 683.38 220.82C684.58 221.97 684.64 223.95 684.3 225.61C682.9 232.61 676.56 237.61 674.43 244.41C673.585 247.212 673.478 250.185 674.119 253.04C674.761 255.896 676.128 258.538 678.09 260.71C678.617 261.354 679.308 261.845 680.09 262.13C680.89 262.285 681.708 262.326 682.52 262.25C685.71 262.25 688.45 264.44 690.88 266.52C693.31 268.6 695.88 270.83 699.12 271.08C702.36 271.33 705.85 268.41 704.89 265.36C704.542 264.449 703.983 263.633 703.26 262.98C701.26 260.92 698.64 259.3 697.26 256.78C694.85 252.55 696.32 247.26 697.84 242.63C699.36 238 700.84 232.7 698.37 228.49C697.21 226.49 695.27 224.99 694.37 222.87C693.874 221.643 693.613 220.333 693.6 219.01C693.39 214.17 694.6 209.24 693.6 204.52C693.004 202.244 691.961 200.109 690.53 198.241C689.1 196.373 687.312 194.809 685.27 193.64C683.197 192.378 680.944 191.438 678.59 190.85C677.68 190.62 676.3 190.67 675.66 189.99C675.02 189.31 674.8 188.1 673.99 187.34C672.03 185.66 669.43 184.84 667.04 184.25Z" fill="#FBC661"/>
<path opacity="0.05" d="M683.38 215.44C682.945 215.062 682.402 214.833 681.828 214.786C681.254 214.739 680.68 214.877 680.19 215.18C680.165 217.304 679.934 219.421 679.5 221.5C679.94 220.09 682.26 219.77 683.38 220.87C683.604 221.092 683.796 221.345 683.95 221.62C684.091 221.163 684.208 220.699 684.3 220.23C684.64 218.57 684.59 216.63 683.38 215.44Z" fill="black"/>
<path opacity="0.05" d="M693.5 213.63C693.51 214.028 693.54 214.425 693.59 214.82C693.882 212.087 693.946 209.334 693.78 206.59C693.557 208.93 693.463 211.28 693.5 213.63Z" fill="black"/>
<path opacity="0.05" d="M679.5 221.5C679.471 221.608 679.451 221.718 679.44 221.83L679.5 221.5Z" fill="black"/>
<path opacity="0.05" d="M696.17 248.71C696.556 246.673 697.091 244.668 697.77 242.71C698.98 239.05 700.14 234.96 699.35 231.32C698.98 233.358 698.452 235.364 697.77 237.32C696.56 240.94 695.38 245.05 696.17 248.71Z" fill="black"/>
<path opacity="0.05" d="M679.65 210.08C679.827 210.862 679.96 211.653 680.05 212.45C680.337 209.845 680.202 207.211 679.65 204.65C678.858 200.736 676.605 197.271 673.35 194.96C669.84 192.64 665.35 192.18 661.2 192.54C659.42 192.7 657.46 193.09 656.4 194.54C655.857 195.381 655.531 196.343 655.45 197.34C654.84 201.84 655.35 207.13 651.96 210.15C649.82 212.08 646.71 212.43 644.19 213.82C640.61 215.82 638.47 219.82 638.08 223.82C637.953 225.264 638.006 226.719 638.24 228.15C638.512 226.308 639.193 224.549 640.23 223.003C641.268 221.456 642.638 220.161 644.24 219.21C646.76 217.82 649.87 217.47 652.01 215.55C655.4 212.55 654.89 207.23 655.5 202.74C655.581 201.74 655.907 200.774 656.45 199.93C657.51 198.49 659.45 198.1 661.25 197.93C665.44 197.57 669.89 198.02 673.4 200.35C676.644 202.681 678.879 206.16 679.65 210.08Z" fill="black"/>
<path opacity="0.05" d="M703.88 263.73C703.28 264.395 702.541 264.92 701.714 265.266C700.888 265.611 699.995 265.77 699.1 265.73C695.91 265.48 693.28 263.25 690.86 261.17C688.44 259.09 685.69 256.94 682.5 256.9C681.688 256.971 680.871 256.93 680.07 256.78C679.29 256.491 678.6 256.001 678.07 255.36C675.852 252.93 674.398 249.901 673.89 246.65C673.481 249.169 673.644 251.749 674.367 254.197C675.091 256.645 676.357 258.898 678.07 260.79C678.597 261.434 679.288 261.925 680.07 262.21C680.87 262.365 681.689 262.406 682.5 262.33C685.69 262.33 688.43 264.52 690.86 266.6C693.29 268.68 695.86 270.91 699.1 271.16C702.34 271.41 705.83 268.49 704.87 265.44C704.659 264.809 704.322 264.227 703.88 263.73Z" fill="black"/>
<path opacity="0.05" d="M621.841 237.25C622.275 235.786 622.357 234.241 622.081 232.74C621.631 230.53 620.311 228.61 619.341 226.58C619.141 226.166 618.961 225.746 618.801 225.32C618.801 225.38 618.731 225.44 618.701 225.51C617.701 227.51 618.361 229.98 619.341 232.01C620.294 233.696 621.13 235.447 621.841 237.25Z" fill="black"/>
<path opacity="0.05" d="M643.68 247.39C643.51 248.28 643.31 249.16 643.15 250.05C642.62 253.05 642.59 256.05 642.03 259.05C641.47 262.05 640.28 265.05 637.95 266.93C634.56 269.72 629.69 269.59 625.32 269.13C622.59 268.85 619.5 268.27 618.03 265.95C617.5 265.09 617.25 264.09 616.75 263.21C615.75 261.37 613.68 260.21 612.65 258.39C612.58 258.27 612.52 258.13 612.46 258C612.078 258.93 611.898 259.931 611.931 260.935C611.963 261.94 612.209 262.927 612.65 263.83C613.65 265.68 615.71 266.83 616.75 268.65C617.25 269.52 617.5 270.53 618.03 271.38C619.5 273.71 622.59 274.28 625.32 274.56C629.69 275.02 634.56 275.16 637.95 272.36C640.28 270.44 641.46 267.45 642.03 264.48C642.6 261.51 642.62 258.48 643.15 255.48C643.53 253.34 644.15 251.2 643.97 249.04C643.92 248.483 643.823 247.931 643.68 247.39Z" fill="black"/>
<path d="M606.42 285.39C606.42 285.39 601.42 288.11 598.27 313.33C595.12 338.55 593.61 365.33 593.61 365.33C593.61 365.33 593.61 387.84 614.95 388.61C614.95 388.61 623.49 390.17 626.21 392.11C628.93 394.05 671.61 380.85 651.43 378.11C631.25 375.37 623.88 376.55 623.88 376.55C623.88 376.55 613.01 369.55 613.01 362.97C613.01 356.39 623.88 317.25 623.88 317.25L606.42 285.39Z" fill="#FBB3B2"/>
<path d="M606.34 305.17C606.88 306.49 607.16 307.9 607.61 309.26C608.833 312.375 610.519 315.287 612.61 317.9C615.15 321.44 619.23 329.78 621.76 333.32C623.274 328.124 625.495 323.161 628.36 318.57L606.44 283.07C606.44 283.07 604.72 283.99 602.67 289.77C602.56 290.82 602.5 291.87 602.49 292.9C602.352 295.247 602.692 297.598 603.49 299.81C604.29 301.68 605.57 303.3 606.34 305.17Z" fill="#3F3D56"/>
<path d="M681.5 233.25C681.5 233.011 681.425 232.778 681.287 232.583C681.15 232.388 680.955 232.24 680.73 232.16V230.85C680.956 230.771 681.151 230.623 681.289 230.428C681.427 230.233 681.501 229.999 681.5 229.76C681.503 229.544 681.446 229.332 681.336 229.146C681.226 228.961 681.067 228.809 680.877 228.709C680.686 228.608 680.471 228.562 680.256 228.576C680.041 228.589 679.834 228.662 679.657 228.786C679.481 228.91 679.342 229.081 679.256 229.279C679.171 229.476 679.141 229.694 679.172 229.908C679.202 230.121 679.291 230.322 679.428 230.488C679.565 230.655 679.746 230.78 679.95 230.85V232.16C679.723 232.239 679.526 232.387 679.387 232.583C679.248 232.78 679.173 233.014 679.173 233.255C679.173 233.495 679.248 233.73 679.387 233.926C679.526 234.122 679.723 234.27 679.95 234.35V235.65C679.723 235.729 679.526 235.877 679.387 236.073C679.248 236.27 679.173 236.504 679.173 236.745C679.173 236.985 679.248 237.22 679.387 237.416C679.526 237.612 679.723 237.76 679.95 237.84V239.15C679.693 239.242 679.476 239.422 679.338 239.658C679.2 239.894 679.15 240.171 679.197 240.44C679.244 240.709 679.384 240.954 679.593 241.13C679.802 241.306 680.067 241.402 680.34 241.402C680.613 241.402 680.878 241.306 681.087 241.13C681.296 240.954 681.436 240.709 681.483 240.44C681.53 240.171 681.48 239.894 681.342 239.658C681.204 239.422 680.987 239.242 680.73 239.15V237.84C680.957 237.76 681.154 237.612 681.293 237.416C681.432 237.22 681.507 236.985 681.507 236.745C681.507 236.504 681.432 236.27 681.293 236.073C681.154 235.877 680.957 235.729 680.73 235.65V234.35C680.957 234.269 681.152 234.12 681.29 233.922C681.428 233.725 681.502 233.49 681.5 233.25Z" fill="#EEEFF3"/>
<path d="M718.95 269.87C724.916 279.851 729.237 290.727 731.75 302.08C735.63 320.32 738.35 324.2 738.35 324.2C738.35 324.2 755.43 367.66 736.41 370.38C717.39 373.1 684.03 370.38 684.03 370.38C684.03 370.38 616.51 382.02 640.18 366.5C663.85 350.98 682.5 352.91 682.5 352.91C682.5 352.91 710.83 352.14 714.71 349.42L722.08 348.65L704.62 298.98L718.95 269.87Z" fill="#FBB3B2"/>
<path d="M700.91 298.39L709.05 317.39C714.55 306.3 720.88 292.71 722.05 280.39C722.16 278.109 722.11 275.824 721.9 273.55C721.007 271.695 719.83 269.991 718.41 268.5L700.91 298.39Z" fill="#3F3D56"/>
<path d="M434.97 517.25C434.97 517.25 415.34 558.11 428.97 572.53C442.6 586.95 451.81 515.65 451.81 515.65L434.97 517.25Z" fill="#A0616A"/>
<path d="M340.02 708.33L318.02 735.97C318.02 735.97 273.55 753.6 314.41 755.97C314.41 755.97 334.41 754.37 338.41 751.56C342.41 748.75 344.82 743.15 352.83 746.36C360.84 749.57 370.06 743.15 370.06 743.15C370.06 743.15 371.26 711.9 363.25 708.3C355.24 704.7 340.02 708.33 340.02 708.33Z" fill="#36344A"/>
<path d="M422.15 718.34L416.94 741.18C416.94 741.18 405.32 768.42 422.15 764.41C438.98 760.4 447.39 756 448.99 747.99C450.59 739.98 454.99 731.16 454.99 731.16C454.99 731.16 450.18 718.74 445.78 718.34C441.38 717.94 422.15 718.34 422.15 718.34Z" fill="#36344A"/>
<path d="M314.78 442.31C314.78 442.31 300.36 541.31 310.38 595.31C320.4 649.31 332.38 704.68 332.38 704.68C332.38 704.68 318.38 736.68 366.38 715.5C366.38 715.5 363.18 636.17 353.56 605.33C343.94 574.49 358.5 532.85 362.5 531.65C362.5 531.65 378.5 612.18 394.15 638.65C409.8 665.12 418.5 726.76 418.5 726.76C418.5 726.76 452.16 731.16 451.76 722.35C451.36 713.54 445.35 639.02 425.76 612.58C425.76 612.58 408.93 568.51 419.76 522.84C430.59 477.17 408.14 461.54 408.14 461.54L372.5 419.48L336.85 411.48L314.78 442.31Z" fill="#3F3D56"/>
<path d="M420.5 271.75C420.124 273.054 419.518 274.28 418.71 275.37C417.874 276.267 416.885 277.008 415.79 277.56C412.269 279.546 408.544 281.145 404.68 282.33C403.68 284.33 405.3 286.58 406.84 288.2L411.36 292.98C414 295.76 416.64 298.54 419.49 301.1C425 306.045 431.253 310.094 438.02 313.1C441.56 314.67 446.13 315.79 448.97 313.16C451.81 310.53 451.1 305.91 452.82 302.48C453.037 302.275 453.203 302.023 453.307 301.744C453.41 301.464 453.447 301.164 453.415 300.868C453.383 300.571 453.283 300.286 453.123 300.035C452.962 299.784 452.745 299.573 452.49 299.42C450.17 297.13 449.7 293.51 450.19 290.29C450.68 287.07 451.99 284.03 452.74 280.86C453.49 277.69 453.63 274.15 451.94 271.36C450.946 269.876 449.659 268.61 448.16 267.64C444.877 265.31 441.216 263.565 437.34 262.48C435.34 261.93 433.34 261.56 431.34 260.97C430.1 260.59 426.74 258.27 425.68 258.46C423.5 258.82 421.27 269.42 420.5 271.75Z" fill="#A0616A"/>
<path opacity="0.1" d="M420.5 271.75C420.124 273.054 419.518 274.28 418.71 275.37C417.874 276.267 416.885 277.008 415.79 277.56C412.269 279.546 408.544 281.145 404.68 282.33C403.68 284.33 405.3 286.58 406.84 288.2L411.36 292.98C414 295.76 416.64 298.54 419.49 301.1C425 306.045 431.253 310.094 438.02 313.1C441.56 314.67 446.13 315.79 448.97 313.16C451.81 310.53 451.1 305.91 452.82 302.48C453.037 302.275 453.203 302.023 453.307 301.744C453.41 301.464 453.447 301.164 453.415 300.868C453.383 300.571 453.283 300.286 453.123 300.035C452.962 299.784 452.745 299.573 452.49 299.42C450.17 297.13 449.7 293.51 450.19 290.29C450.68 287.07 451.99 284.03 452.74 280.86C453.49 277.69 453.63 274.15 451.94 271.36C450.946 269.876 449.659 268.61 448.16 267.64C444.877 265.31 441.216 263.565 437.34 262.48C435.34 261.93 433.34 261.56 431.34 260.97C430.1 260.59 426.74 258.27 425.68 258.46C423.5 258.82 421.27 269.42 420.5 271.75Z" fill="black"/>
<path d="M416.01 278.94C415.96 278.15 415.87 277.23 415.2 276.8C414.81 276.585 414.364 276.491 413.92 276.53C404.46 276.53 396.79 283.97 390.84 291.31C378.3 306.76 368.41 324.2 359.84 342.17C354.57 353.24 349.68 365.69 353.07 377.48C354.142 380.977 355.737 384.291 357.8 387.31C360.642 391.625 364.091 395.508 368.04 398.84C369.522 400.265 371.36 401.267 373.36 401.74C376.36 402.22 379.21 400.57 381.77 398.98C386.91 395.78 392.027 392.547 397.12 389.28C405.39 383.98 413.66 378.59 420.95 372.01C428.24 365.43 434.57 357.57 438.16 348.43C439.69 344.55 440.71 340.43 442.43 336.67C445.05 330.88 449.28 325.77 450.78 319.59C451.49 316.64 451.55 313.59 452.31 310.64C452.91 308.29 453.95 306.07 454.45 303.7C454.95 301.33 454.83 298.7 453.32 296.76C450.78 293.54 445.84 294.02 441.82 294.85C436.58 295.93 427.24 298.59 422.25 295.42C417.98 292.69 416.31 283.58 416.01 278.94Z" fill="#EEEFF3"/>
<path d="M413.34 298.09L407.73 298.49L403.73 296.88L406.94 287.27C406.94 287.27 418.24 288.55 419.4 292.11C419.4 292.11 420.24 294.56 421.6 294.92C422.96 295.28 428.6 294.48 429.77 297.28C430.94 300.08 430.57 315.28 422.96 313.28L419.36 303.66L417.75 301.26C417.75 301.26 412.94 300.49 413.34 298.09Z" fill="#3F3D56"/>
<path d="M367.26 387.43C367.26 387.43 379.68 305.7 418.54 276.43C418.54 276.43 418.94 268.82 412.13 269.62C405.32 270.42 376.88 264.81 376.88 264.81L350.04 316.9C350.04 316.9 344.04 365.37 339.62 373.38C335.2 381.39 307.57 445.1 307.57 445.1C307.57 445.1 323.2 497.58 346.43 427.1C346.43 427.1 328.43 484.39 379.28 490C430.13 495.61 424.15 486.79 424.15 486.79L430.15 445.13V413.87L441.37 391.87L487.04 333.78C487.04 333.78 456.04 290.86 450.12 294.69C450.13 294.65 411.73 355.38 367.26 387.43Z" fill="#3F3D56"/>
<path d="M382.89 268.04L376.89 264.83C376.89 264.83 358.46 271.64 352.05 298.09C352.05 298.09 336.43 309.3 326.05 317.72C326.05 317.72 312.05 291.72 312.05 282.86C312.05 282.86 288.81 298.49 283.6 294.48C283.6 294.48 297.6 358.98 324.07 354.17C350.54 349.36 360.5 333.74 360.5 333.74L382.89 268.04Z" fill="#3F3D56"/>
<path d="M471.83 336.15L487.05 333.74C487.05 333.74 496.67 346.56 479.44 365.39L469.02 429.09C469.02 429.09 470.22 450.32 466.62 466.35C463.02 482.38 457.4 531.65 457.4 531.65C457.4 531.65 438.98 524.84 428.96 526.04L444.18 378.25L471.83 336.15Z" fill="#3F3D56"/>
<path d="M311.18 287.25C311.18 287.25 302.76 236.77 288.34 255.6C273.92 274.43 289.94 300.47 289.94 300.47L311.18 287.25Z" fill="#A0616A"/>
<path d="M451.2 289.88C469.122 289.88 483.65 275.352 483.65 257.43C483.65 239.508 469.122 224.98 451.2 224.98C433.278 224.98 418.75 239.508 418.75 257.43C418.75 275.352 433.278 289.88 451.2 289.88Z" fill="#A0616A"/>
<path d="M477.14 222.42C476.399 221.497 475.73 220.517 475.14 219.49C473.19 216.63 470.14 214.76 467.14 213.08C461.65 210.08 455.39 207.26 449.28 208.72C445.05 209.72 441.46 212.72 437.2 213.58C432.94 214.44 427.88 213.49 425.01 216.69C422.14 219.89 423.41 224.93 420.94 228.24C419.57 230.07 417.03 231.75 417.72 233.93C418.01 234.85 418.86 235.5 419.25 236.39C419.94 237.95 419.09 239.74 419.05 241.45C419 243.98 420.73 246.15 421.95 248.37C423.17 250.59 423.83 253.69 421.95 255.43C428.314 250.34 435.288 246.064 442.71 242.7C442.699 243.727 442.431 244.734 441.93 245.63C445.949 245.038 449.927 244.193 453.84 243.1L451.78 247.05L460.62 243.19C463.01 242.14 466.01 241.19 468.05 242.79C468.99 243.687 469.65 244.836 469.95 246.1C471.115 249.712 471.808 253.46 472.01 257.25C472.23 261.53 472.01 266.25 474.78 269.52C475.565 270.349 476.511 271.007 477.561 271.454C478.611 271.902 479.741 272.129 480.882 272.121C482.024 272.114 483.151 271.872 484.195 271.411C485.238 270.95 486.176 270.279 486.95 269.44C487.73 266.44 486.56 263.34 486.5 260.26C486.41 255.77 488.67 251.55 489.08 247.08C489.61 241.43 486.27 238.08 484.75 233.08C484.16 231.16 484.52 228.89 483.39 227.08C481.93 224.84 478.95 224.34 477.14 222.42Z" fill="#3F3D56"/>
<path d="M288.55 313.94L300.12 294.51L290.68 288.89C292.92 286.27 300.68 277.11 302.75 272.83C302.75 272.83 314.27 263.47 316.62 251.35C316.62 251.35 319.74 254.29 322.52 250.53C325.3 246.77 336.82 240.13 327.71 230.92L328.44 227.19C329.924 226.392 331.154 225.193 331.99 223.73C333.99 220.42 333.76 216.73 331.56 215.37C329.36 214.01 325.97 215.67 324 218.98C323.018 220.551 322.556 222.391 322.68 224.24L320.05 227.44C320.05 227.44 310.53 217.99 304.15 239.6C304.15 239.6 303.45 243.51 305.45 244.7C305.45 244.7 295.69 258.35 294.6 264.7C294.6 264.7 286.2 277 286.13 280.7L283.75 284.7L273.75 278.76L261.99 298.53C256.18 296.66 251.84 296.53 250.64 298.53C248.54 302.06 256.84 310.88 269.19 318.23C281.54 325.58 293.24 328.67 295.34 325.15C296.69 322.98 293.88 318.66 288.55 313.94Z" fill="#D90429"/>
<path opacity="0.1" d="M328.31 221.25C327.474 222.712 326.249 223.914 324.77 224.72L324.03 228.44C333.15 237.65 321.62 244.3 318.84 248.06C318.553 248.557 318.157 248.982 317.681 249.303C317.205 249.623 316.662 249.831 316.093 249.909C315.525 249.987 314.946 249.934 314.401 249.754C313.856 249.574 313.36 249.271 312.95 248.87C310.6 260.99 299.08 270.35 299.08 270.35C296.99 274.64 289.25 283.8 287.01 286.41L290.6 288.55C292.84 285.94 300.6 276.77 302.67 272.49C302.67 272.49 314.19 263.13 316.54 251.01C316.54 251.01 319.66 253.95 322.44 250.19C325.22 246.43 336.74 239.79 327.63 230.58L328.36 226.85C329.84 226.05 331.066 224.851 331.9 223.39C333.9 220.09 333.68 216.39 331.48 215.03C330.82 214.652 330.054 214.501 329.3 214.6C329.637 215.712 329.723 216.886 329.552 218.036C329.38 219.186 328.956 220.284 328.31 221.25Z" fill="black"/>
<path opacity="0.1" d="M288.5 313.62L300.07 294.19L296.5 292.05L284.93 311.48C290.26 316.21 293.06 320.48 291.74 322.74C289.74 326.09 279.05 323.45 267.39 316.87C267.98 317.23 268.57 317.6 269.18 317.96C281.52 325.31 293.23 328.41 295.33 324.88C296.6 322.66 293.8 318.34 288.5 313.62Z" fill="black"/>
</g>
<defs>
<clipPath id="clip0_179_1047">
<rect width="1081" height="840.51" fill="white"/>
</clipPath>
</defs>
</svg>
