<svg width="170" height="115" viewBox="0 0 170 115" fill="none" xmlns="http://www.w3.org/2000/svg">
<g clip-path="url(#clip0_26_35)">
<path d="M167.102 65.9772V113.537H49.1435C42.9 113.756 36.826 111.461 32.2578 107.156C27.6895 102.852 25.0011 96.8904 24.784 90.5837C24.5669 84.2769 26.839 78.1413 31.1003 73.5267C35.3616 68.9121 41.2631 66.1965 47.5065 65.9772C48.0522 65.958 48.5982 65.958 49.1444 65.9772H167.102Z" fill="#F2F2F2"/>
<path d="M170 113.171C170 113.656 169.809 114.121 169.469 114.465C169.129 114.808 168.668 115.001 168.188 115.001H47.0437C40.464 115.001 34.1538 112.36 29.5012 107.661C24.8486 102.961 22.2349 96.5868 22.2349 89.9404C22.2349 83.2939 24.8486 76.9197 29.5012 72.22C34.1538 67.5202 40.464 64.88 47.0437 64.88H168.19C168.433 64.8716 168.675 64.9128 168.902 65.0009C169.129 65.0891 169.336 65.2225 169.511 65.3932C169.686 65.5639 169.825 65.7683 169.92 65.9944C170.015 66.2205 170.063 66.4636 170.063 66.7092C170.063 66.9547 170.015 67.1978 169.92 67.4239C169.825 67.65 169.686 67.8545 169.511 68.0251C169.336 68.1958 169.129 68.3292 168.902 68.4174C168.675 68.5056 168.433 68.5467 168.19 68.5384H47.0437C41.4368 68.5571 36.0658 70.8202 32.1076 74.8317C28.1495 78.8433 25.9269 84.2762 25.9269 89.94C25.9269 95.6038 28.1495 101.037 32.1076 105.048C36.0658 109.06 41.4368 111.323 47.0437 111.342H168.19C168.67 111.342 169.13 111.535 169.469 111.878C169.809 112.221 169.999 112.686 170 113.171Z" fill="#D90429"/>
<path d="M167.104 76.9523H40.3445C40.2485 76.9532 40.156 76.9156 40.0875 76.8476C40.0189 76.7796 39.9799 76.6869 39.979 76.5899C39.9781 76.4929 40.0154 76.3995 40.0827 76.3303C40.15 76.261 40.2418 76.2216 40.3378 76.2207H167.104C167.2 76.2207 167.292 76.2592 167.36 76.3279C167.428 76.3965 167.466 76.4895 167.466 76.5865C167.466 76.6835 167.428 76.7766 167.36 76.8452C167.292 76.9138 167.2 76.9523 167.104 76.9523Z" fill="#CCCCCC"/>
<path d="M167.104 85.7326H40.3445C40.297 85.7331 40.2498 85.724 40.2057 85.7061C40.1616 85.6881 40.1214 85.6615 40.0875 85.6279C40.0535 85.5942 40.0265 85.5541 40.0079 85.5099C39.9893 85.4657 39.9795 85.4182 39.979 85.3702C39.9786 85.3222 39.9875 85.2745 40.0053 85.2299C40.0231 85.1854 40.0494 85.1448 40.0827 85.1105C40.116 85.0762 40.1557 85.0489 40.1995 85.0301C40.2432 85.0113 40.2902 85.0014 40.3378 85.001H167.104C167.2 85.001 167.292 85.0395 167.36 85.1081C167.428 85.1767 167.466 85.2698 167.466 85.3668C167.466 85.4638 167.428 85.5569 167.36 85.6255C167.292 85.6941 167.2 85.7326 167.104 85.7326Z" fill="#CCCCCC"/>
<path d="M167.104 94.5124H40.3445C40.2485 94.5133 40.156 94.4756 40.0875 94.4077C40.0189 94.3397 39.9799 94.247 39.979 94.15C39.9781 94.053 40.0154 93.9596 40.0827 93.8903C40.15 93.8211 40.2418 93.7817 40.3378 93.7808H167.104C167.2 93.7808 167.292 93.8193 167.36 93.8879C167.428 93.9565 167.466 94.0496 167.466 94.1466C167.466 94.2436 167.428 94.3366 167.36 94.4052C167.292 94.4739 167.2 94.5124 167.104 94.5124Z" fill="#CCCCCC"/>
<path d="M167.104 103.293H40.3445C40.297 103.293 40.2498 103.284 40.2057 103.266C40.1616 103.248 40.1214 103.222 40.0875 103.188C40.0535 103.154 40.0265 103.114 40.0079 103.07C39.9893 103.026 39.9795 102.978 39.979 102.93C39.9786 102.882 39.9875 102.835 40.0053 102.79C40.0231 102.745 40.0494 102.705 40.0827 102.671C40.116 102.636 40.1557 102.609 40.1995 102.59C40.2432 102.571 40.2902 102.561 40.3378 102.561H167.104C167.2 102.561 167.292 102.6 167.36 102.668C167.428 102.737 167.466 102.83 167.466 102.927C167.466 103.024 167.428 103.117 167.36 103.186C167.292 103.254 167.2 103.293 167.104 103.293Z" fill="#CCCCCC"/>
<path d="M144.866 15.8709V63.43H26.9081C20.6647 63.6494 14.5906 61.3545 10.0223 57.05C5.4539 52.7456 2.76539 46.7843 2.54819 40.4776C2.33099 34.1708 4.6029 28.0352 8.86411 23.4205C13.1253 18.8058 19.0268 16.09 25.2702 15.8706C25.816 15.8514 26.3619 15.8514 26.9081 15.8706L144.866 15.8709Z" fill="#F2F2F2"/>
<path d="M147.765 63.0643C147.765 63.5497 147.574 64.0152 147.234 64.3585C146.894 64.7017 146.433 64.8946 145.953 64.8946H24.8086C18.2289 64.8946 11.9187 62.2543 7.2661 57.5545C2.61354 52.8548 -0.000244141 46.4806 -0.000244141 39.8342C-0.000244141 33.1877 2.61354 26.8135 7.2661 22.1138C11.9187 17.414 18.2289 14.7738 24.8086 14.7738H145.954C146.197 14.7654 146.439 14.8066 146.666 14.8947C146.893 14.9829 147.1 15.1163 147.275 15.287C147.45 15.4577 147.589 15.6621 147.684 15.8882C147.779 16.1143 147.828 16.3574 147.828 16.603C147.828 16.8485 147.779 17.0916 147.684 17.3177C147.589 17.5438 147.45 17.7483 147.275 17.9189C147.1 18.0896 146.893 18.223 146.666 18.3112C146.439 18.3994 146.197 18.4405 145.954 18.4322H24.8086C19.2017 18.4509 13.8307 20.714 9.87254 24.7256C5.91438 28.7371 3.69182 34.17 3.69182 39.8338C3.69182 45.4976 5.91438 50.9305 9.87254 54.9421C13.8307 58.9536 19.2017 61.2167 24.8086 61.2355H145.954C146.435 61.2355 146.896 61.4283 147.235 61.7715C147.575 62.1148 147.766 62.5803 147.766 63.0657L147.765 63.0643Z" fill="#D90429"/>
<path d="M144.867 26.8459H18.1077C18.0602 26.8463 18.013 26.8373 17.9689 26.8193C17.9248 26.8014 17.8846 26.7748 17.8507 26.7412C17.7821 26.6732 17.7431 26.5805 17.7422 26.4835C17.7413 26.3865 17.7786 26.293 17.8459 26.2238C17.9132 26.1546 18.0049 26.1152 18.101 26.1143H144.867C144.963 26.1143 145.055 26.1528 145.123 26.2214C145.191 26.29 145.229 26.3831 145.229 26.4801C145.229 26.5771 145.191 26.6701 145.123 26.7387C145.055 26.8073 144.963 26.8459 144.867 26.8459Z" fill="#CCCCCC"/>
<path d="M144.867 35.6259H18.1077C18.0602 35.6264 18.013 35.6173 17.9689 35.5994C17.9248 35.5814 17.8846 35.5548 17.8507 35.5212C17.8167 35.4875 17.7897 35.4475 17.7711 35.4032C17.7525 35.359 17.7426 35.3115 17.7422 35.2635C17.7418 35.2155 17.7507 35.1678 17.7685 35.1233C17.7863 35.0787 17.8126 35.0381 17.8459 35.0038C17.8792 34.9696 17.9189 34.9422 17.9626 34.9234C18.0064 34.9046 18.0534 34.8947 18.101 34.8943H144.867C144.914 34.8943 144.961 34.9038 145.005 34.9221C145.049 34.9405 145.089 34.9675 145.123 35.0014C145.156 35.0354 145.183 35.0757 145.201 35.1201C145.219 35.1645 145.229 35.2121 145.229 35.2601C145.229 35.3081 145.219 35.3557 145.201 35.4001C145.183 35.4445 145.156 35.4848 145.123 35.5188C145.089 35.5527 145.049 35.5797 145.005 35.5981C144.961 35.6165 144.914 35.6259 144.867 35.6259Z" fill="#CCCCCC"/>
<path d="M144.867 44.406H18.1077C18.0602 44.4064 18.013 44.3974 17.9689 44.3794C17.9248 44.3614 17.8846 44.3349 17.8507 44.3012C17.7821 44.2332 17.7431 44.1406 17.7422 44.0435C17.7413 43.9465 17.7786 43.8531 17.8459 43.7839C17.9132 43.7146 18.0049 43.6752 18.101 43.6743H144.867C144.963 43.6743 145.055 43.7129 145.123 43.7815C145.191 43.8501 145.229 43.9431 145.229 44.0401C145.229 44.1372 145.191 44.2302 145.123 44.2988C145.055 44.3674 144.963 44.406 144.867 44.406Z" fill="#CCCCCC"/>
<path d="M144.867 53.1862H18.1077C18.0117 53.1871 17.9192 53.1494 17.8507 53.0815C17.7821 53.0135 17.7431 52.9208 17.7422 52.8238C17.7413 52.7268 17.7786 52.6334 17.8459 52.5641C17.9132 52.4949 18.0049 52.4555 18.101 52.4546H144.867C144.963 52.4546 145.055 52.4931 145.123 52.5617C145.191 52.6303 145.229 52.7234 145.229 52.8204C145.229 52.9174 145.191 53.0105 145.123 53.0791C145.055 53.1477 144.963 53.1862 144.867 53.1862Z" fill="#CCCCCC"/>
<path d="M124.353 0.00500084H70.6103C70.1004 0.00459059 69.5971 0.122859 69.1397 0.350635L55.5752 7.2101C55.1288 7.40171 54.7481 7.72177 54.4804 8.1304C54.2128 8.53903 54.0701 9.01816 54.0701 9.50813C54.0701 9.99809 54.2128 10.4772 54.4804 10.8859C54.7481 11.2945 55.1288 11.6145 55.5752 11.8061L69.1395 18.6656C69.597 18.8934 70.1003 19.0116 70.6103 19.0112H124.353C125.094 19.0545 125.821 18.8013 126.378 18.3066C126.936 17.8118 127.277 17.1152 127.33 16.3677V2.64925C127.277 1.90164 126.936 1.20488 126.379 0.70994C125.822 0.215 125.094 -0.0382682 124.353 0.00500084Z" fill="#2B2D42"/>
<path d="M127.332 2.64961V16.3683C127.279 17.1157 126.937 17.8122 126.38 18.3069C125.823 18.8015 125.095 19.0546 124.355 19.0111H113.648V0.00465886H124.355C125.095 -0.0387317 125.823 0.214575 126.381 0.709677C126.938 1.20478 127.28 1.90178 127.332 2.64961Z" fill="#D90429"/>
</g>
<defs>
<clipPath id="clip0_26_35">
<rect width="170" height="115" fill="white"/>
</clipPath>
</defs>
</svg>
