<svg width="170" height="115" viewBox="0 0 170 115" fill="none" xmlns="http://www.w3.org/2000/svg">
<g clip-path="url(#clip0_26_73)">
<path d="M169.754 114.118H0.245665C0.18051 114.118 0.118024 114.094 0.0719533 114.051C0.0258823 114.008 0 113.949 0 113.888C0 113.827 0.0258823 113.768 0.0719533 113.725C0.118024 113.682 0.18051 113.658 0.245665 113.658H169.754C169.819 113.658 169.882 113.682 169.928 113.725C169.974 113.768 170 113.827 170 113.888C170 113.949 169.974 114.008 169.928 114.051C169.882 114.094 169.819 114.118 169.754 114.118Z" fill="#CCCCCC"/>
<path d="M152.977 73.9957H53.2367C52.8132 73.9957 52.4071 74.1533 52.1076 74.4337C51.8081 74.7141 51.6399 75.0945 51.6399 75.4911C51.6399 75.8877 51.8081 76.268 52.1076 76.5485C52.4071 76.8289 52.8132 76.9865 53.2367 76.9865H56.0619V112.76C56.0619 113.157 56.2301 113.537 56.5296 113.818C56.829 114.098 57.2352 114.256 57.6587 114.256C58.0822 114.256 58.4883 114.098 58.7878 113.818C59.0873 113.537 59.2555 113.157 59.2555 112.76L59.2798 76.9865H146.712V112.76C146.712 113.157 146.88 113.537 147.18 113.818C147.479 114.098 147.885 114.256 148.309 114.256C148.732 114.256 149.139 114.098 149.438 113.818C149.738 113.537 149.906 113.157 149.906 112.76V77.775L150.37 76.9865H152.977C153.4 76.9865 153.806 76.8289 154.106 76.5485C154.405 76.268 154.573 75.8877 154.573 75.4911C154.573 75.0945 154.405 74.7141 154.106 74.4337C153.806 74.1533 153.4 73.9957 152.977 73.9957Z" fill="#CCCCCC"/>
<path d="M108.533 74.7783H78.321C77.736 74.7777 77.1752 74.5598 76.7615 74.1724C76.3478 73.785 76.1152 73.2598 76.1145 72.712V57.1351C76.1152 56.5872 76.3478 56.062 76.7615 55.6746C77.1752 55.2872 77.736 55.0693 78.321 55.0687H108.533C109.118 55.0693 109.679 55.2872 110.093 55.6746C110.506 56.062 110.739 56.5872 110.74 57.1351V72.712C110.739 73.2598 110.506 73.785 110.093 74.1724C109.679 74.5598 109.118 74.7777 108.533 74.7783Z" fill="#3F3D56"/>
<path d="M108.533 56.6591H78.321C78.1862 56.6593 78.057 56.7096 77.9617 56.7988C77.8664 56.8881 77.8128 57.0091 77.8125 57.1353V72.7124C77.8128 72.8386 77.8664 72.9596 77.9617 73.0488C78.057 73.1381 78.1862 73.1884 78.321 73.1886H108.533C108.668 73.1884 108.797 73.1381 108.892 73.0488C108.987 72.9596 109.041 72.8386 109.041 72.7124V57.1353C109.041 57.0091 108.987 56.8881 108.892 56.7988C108.797 56.7096 108.668 56.6593 108.533 56.6591Z" fill="white"/>
<path d="M96.0038 67.6876C96.0038 67.6876 92.387 66.9071 90.3978 68.3379C88.4086 69.7688 92.9295 73.0207 92.9295 73.0207L96.0038 67.6876Z" fill="#2B2D42"/>
<path d="M93.6044 66.213C95.4886 66.213 97.016 64.7826 97.016 63.0182C97.016 61.2537 95.4886 59.8234 93.6044 59.8234C91.7203 59.8234 90.1929 61.2537 90.1929 63.0182C90.1929 64.7826 91.7203 66.213 93.6044 66.213Z" fill="#A0616A"/>
<path d="M90.9661 58.5334C91.1936 58.1718 91.5234 57.8761 91.9191 57.6789C92.3147 57.4818 92.7608 57.3909 93.2082 57.4163C93.6761 57.4712 94.1327 57.5909 94.5631 57.7715L96.7933 58.5862C97.3704 58.797 98.0025 59.0552 98.2529 59.5858C98.4853 60.0782 98.3119 60.6469 98.1364 61.1596L97.302 63.5967C97.2096 63.0451 97.0509 62.5051 96.8291 61.9868C96.6037 61.4651 96.1964 61.0302 95.6734 60.7528C95.0941 60.4745 94.4113 60.4803 93.761 60.5096C92.84 60.5511 91.8386 60.6608 91.1842 61.2692C90.8368 61.6147 90.6013 62.0454 90.505 62.5113C90.4103 62.9748 90.3626 63.4455 90.3626 63.9174C89.9849 63.3094 89.6667 62.6706 89.412 62.009C89.2025 61.5163 89.0831 60.994 89.0588 60.4642C89.0369 59.9298 89.2263 59.4066 89.5906 58.9948C89.7755 58.7936 90.0168 58.6447 90.2873 58.565C90.5577 58.4853 90.8465 58.4779 91.1212 58.5437L90.9661 58.5334Z" fill="#2B2D42"/>
<path d="M101.75 70.4579C101.718 70.35 101.653 70.2533 101.562 70.1801C101.472 70.1068 101.36 70.0602 101.242 70.0461C101.234 70.0409 101.225 70.0363 101.217 70.0322L96.124 67.3594C95.9786 67.2831 95.8073 67.2622 95.6459 67.3011C95.4844 67.34 95.3452 67.4358 95.2572 67.5683L93.8643 69.6803L91.7663 67.7156L91.733 67.6843C91.6253 67.5835 91.4831 67.5214 91.3314 67.509C91.1798 67.4966 91.0282 67.5346 90.9035 67.6164L86.7178 70.3612C86.7105 70.3612 86.7031 70.3635 86.6958 70.3635C86.4955 70.3948 86.3125 70.4891 86.1772 70.6309C86.0418 70.7727 85.9621 70.9535 85.9513 71.1434L85.8433 73.1886H102.558L101.75 70.4579Z" fill="#D90429"/>
<path d="M111.079 72.871H107.854C107.854 72.7867 107.818 72.7058 107.755 72.6462C107.691 72.5866 107.605 72.5531 107.515 72.5531H106.496C106.406 72.5531 106.32 72.5866 106.256 72.6462C106.193 72.7058 106.157 72.7867 106.157 72.871H105.139C105.139 72.7867 105.103 72.7058 105.039 72.6462C104.975 72.5866 104.889 72.5531 104.799 72.5531H103.781C103.691 72.5531 103.604 72.5866 103.541 72.6462C103.477 72.7058 103.441 72.7867 103.441 72.871H102.423C102.423 72.7867 102.387 72.7058 102.323 72.6462C102.26 72.5866 102.173 72.5531 102.083 72.5531H101.065C100.975 72.5531 100.889 72.5866 100.825 72.6462C100.761 72.7058 100.725 72.7867 100.725 72.871H99.7071C99.7071 72.7867 99.6713 72.7058 99.6077 72.6462C99.544 72.5866 99.4577 72.5531 99.3676 72.5531H98.3492C98.2592 72.5531 98.1729 72.5866 98.1092 72.6462C98.0455 72.7058 98.0098 72.7867 98.0098 72.871H96.9914C96.9914 72.7867 96.9556 72.7058 96.8919 72.6462C96.8283 72.5866 96.7419 72.5531 96.6519 72.5531H95.6335C95.5435 72.5531 95.4571 72.5866 95.3935 72.6462C95.3298 72.7058 95.2941 72.7867 95.2941 72.871H94.2757C94.2757 72.7867 94.2399 72.7058 94.1762 72.6462C94.1126 72.5866 94.0262 72.5531 93.9362 72.5531H92.9178C92.8278 72.5531 92.7414 72.5866 92.6778 72.6462C92.6141 72.7058 92.5783 72.7867 92.5783 72.871H91.5599C91.5599 72.7867 91.5242 72.7058 91.4605 72.6462C91.3969 72.5866 91.3105 72.5531 91.2205 72.5531H90.2021C90.1121 72.5531 90.0257 72.5866 89.9621 72.6462C89.8984 72.7058 89.8626 72.7867 89.8626 72.871H88.8442C88.8442 72.7867 88.8085 72.7058 88.7448 72.6462C88.6812 72.5866 88.5948 72.5531 88.5048 72.5531H87.4864C87.3963 72.5531 87.31 72.5866 87.2463 72.6462C87.1827 72.7058 87.1469 72.7867 87.1469 72.871H86.1285C86.1285 72.7867 86.0928 72.7058 86.0291 72.6462C85.9654 72.5866 85.8791 72.5531 85.7891 72.5531H84.7707C84.6806 72.5531 84.5943 72.5866 84.5306 72.6462C84.467 72.7058 84.4312 72.7867 84.4312 72.871H83.4128C83.4128 72.7867 83.377 72.7058 83.3134 72.6462C83.2497 72.5866 83.1634 72.5531 83.0734 72.5531H82.055C81.9649 72.5531 81.8786 72.5866 81.8149 72.6462C81.7513 72.7058 81.7155 72.7867 81.7155 72.871H80.6971C80.6971 72.7867 80.6613 72.7058 80.5977 72.6462C80.534 72.5866 80.4477 72.5531 80.3576 72.5531H79.3392C79.2492 72.5531 79.1629 72.5866 79.0992 72.6462C79.0355 72.7058 78.9998 72.7867 78.9998 72.871H75.7749C75.5051 72.8714 75.2464 72.972 75.0558 73.1508C74.8651 73.3297 74.7581 73.572 74.7581 73.8247C74.7581 74.0774 74.8651 74.3197 75.0558 74.4985C75.2464 74.6773 75.5051 74.778 75.7749 74.7784H111.079C111.349 74.7784 111.608 74.6779 111.799 74.499C111.99 74.3202 112.098 74.0776 112.098 73.8247C112.098 73.5718 111.99 73.3292 111.799 73.1503C111.608 72.9715 111.349 72.871 111.079 72.871Z" fill="#3F3D56"/>
<path d="M70.5251 67.3326V73.6651H53.5835C53.1296 73.6799 52.6772 73.6089 52.2532 73.4565C51.8292 73.304 51.4423 73.0732 51.1156 72.7777C50.7889 72.4822 50.5291 72.1282 50.3517 71.7367C50.1742 71.3451 50.0828 70.9242 50.0828 70.4988C50.0828 70.0735 50.1742 69.6526 50.3517 69.261C50.5291 68.8695 50.7889 68.5155 51.1156 68.22C51.4423 67.9245 51.8292 67.6937 52.2532 67.5412C52.6772 67.3888 53.1296 67.3178 53.5835 67.3326H70.5251Z" fill="#F2F2F2"/>
<path d="M70.9413 73.6164C70.9413 73.681 70.9139 73.743 70.8651 73.7886C70.8164 73.8343 70.7502 73.86 70.6813 73.86H53.2819C52.3369 73.86 51.4306 73.5084 50.7624 72.8827C50.0941 72.2569 49.7188 71.4082 49.7188 70.5233C49.7188 69.6383 50.0941 68.7896 50.7624 68.1638C51.4306 67.5381 52.3369 67.1865 53.2819 67.1865H70.6813C70.7502 67.1865 70.8164 67.2122 70.8652 67.2579C70.9139 67.3035 70.9413 67.3655 70.9413 67.4301C70.9413 67.4947 70.9139 67.5566 70.8652 67.6023C70.8164 67.648 70.7502 67.6736 70.6813 67.6736H53.2819C52.4753 67.6743 51.702 67.9748 51.1319 68.5092C50.5619 69.0435 50.2416 69.7679 50.2416 70.5233C50.2416 71.2786 50.5619 72.003 51.1319 72.5373C51.702 73.0717 52.4753 73.3722 53.2819 73.3729H70.6813C70.7502 73.3729 70.8164 73.3986 70.8651 73.4442C70.9139 73.4899 70.9413 73.5518 70.9413 73.6164Z" fill="#D90429"/>
<path d="M70.5251 68.794H52.3195C52.3126 68.794 52.3058 68.7928 52.2994 68.7903C52.2931 68.7879 52.2873 68.7843 52.2825 68.7798C52.2776 68.7753 52.2737 68.7699 52.2711 68.764C52.2684 68.758 52.2671 68.7517 52.2671 68.7453C52.2671 68.7388 52.2684 68.7325 52.2711 68.7265C52.2737 68.7206 52.2776 68.7152 52.2825 68.7107C52.2873 68.7062 52.2931 68.7026 52.2994 68.7002C52.3058 68.6977 52.3126 68.6965 52.3195 68.6965H70.5251C70.5388 68.6966 70.552 68.7018 70.5617 68.7109C70.5713 68.72 70.5768 68.7324 70.5768 68.7453C70.5768 68.7581 70.5713 68.7705 70.5617 68.7796C70.552 68.7887 70.5388 68.7939 70.5251 68.794Z" fill="#CCCCCC"/>
<path d="M70.5251 69.963H52.3195C52.3126 69.9631 52.3058 69.9618 52.2994 69.9594C52.2931 69.957 52.2873 69.9534 52.2825 69.9489C52.2776 69.9443 52.2737 69.939 52.2711 69.933C52.2684 69.9271 52.2671 69.9207 52.2671 69.9143C52.2671 69.9079 52.2684 69.9015 52.2711 69.8956C52.2737 69.8897 52.2776 69.8843 52.2825 69.8797C52.2873 69.8752 52.2931 69.8716 52.2994 69.8692C52.3058 69.8668 52.3126 69.8656 52.3195 69.8656H70.5251C70.5388 69.8657 70.552 69.8709 70.5617 69.88C70.5713 69.8891 70.5768 69.9015 70.5768 69.9143C70.5768 69.9272 70.5713 69.9395 70.5617 69.9486C70.552 69.9578 70.5388 69.9629 70.5251 69.963Z" fill="#CCCCCC"/>
<path d="M70.5251 71.1321H52.3195C52.3126 71.1321 52.3058 71.1309 52.2994 71.1285C52.2931 71.1261 52.2873 71.1225 52.2825 71.1179C52.2776 71.1134 52.2737 71.108 52.2711 71.1021C52.2684 71.0962 52.2671 71.0898 52.2671 71.0834C52.2671 71.077 52.2684 71.0706 52.2711 71.0647C52.2737 71.0587 52.2776 71.0533 52.2825 71.0488C52.2873 71.0443 52.2931 71.0407 52.2994 71.0383C52.3058 71.0358 52.3126 71.0346 52.3195 71.0347H70.5251C70.5388 71.0348 70.552 71.0399 70.5617 71.0491C70.5713 71.0582 70.5768 71.0705 70.5768 71.0834C70.5768 71.0962 70.5713 71.1086 70.5617 71.1177C70.552 71.1268 70.5388 71.132 70.5251 71.1321Z" fill="#CCCCCC"/>
<path d="M70.5251 72.3012H52.3195C52.3126 72.3012 52.3058 72.3 52.2994 72.2975C52.2931 72.2951 52.2873 72.2915 52.2825 72.287C52.2776 72.2825 52.2737 72.2771 52.2711 72.2712C52.2684 72.2652 52.2671 72.2589 52.2671 72.2524C52.2671 72.246 52.2684 72.2397 52.2711 72.2337C52.2737 72.2278 52.2776 72.2224 52.2825 72.2179C52.2873 72.2134 52.2931 72.2098 52.2994 72.2073C52.3058 72.2049 52.3126 72.2037 52.3195 72.2037H70.5251C70.5388 72.2038 70.552 72.209 70.5617 72.2181C70.5713 72.2273 70.5768 72.2396 70.5768 72.2524C70.5768 72.2653 70.5713 72.2777 70.5617 72.2868C70.552 72.2959 70.5388 72.3011 70.5251 72.3012Z" fill="#CCCCCC"/>
<path d="M67.3315 60.661V66.9935H50.3899C49.936 67.0082 49.4836 66.9373 49.0596 66.7848C48.6356 66.6324 48.2487 66.4015 47.922 66.1061C47.5953 65.8106 47.3355 65.4565 47.1581 65.065C46.9806 64.6735 46.8892 64.2525 46.8892 63.8272C46.8892 63.4019 46.9806 62.9809 47.1581 62.5894C47.3355 62.1979 47.5953 61.8438 47.922 61.5484C48.2487 61.2529 48.6356 61.022 49.0596 60.8696C49.4836 60.7171 49.936 60.6462 50.3899 60.661H67.3315Z" fill="#F2F2F2"/>
<path d="M67.7477 66.9448C67.7477 67.0094 67.7203 67.0713 67.6715 67.117C67.6228 67.1627 67.5566 67.1883 67.4876 67.1883H50.0883C49.6203 67.1883 49.157 67.102 48.7247 66.9344C48.2924 66.7667 47.8996 66.5209 47.5688 66.211C47.2379 65.9012 46.9754 65.5334 46.7964 65.1285C46.6173 64.7237 46.5251 64.2898 46.5251 63.8516C46.5251 63.4134 46.6173 62.9795 46.7964 62.5747C46.9754 62.1699 47.2379 61.802 47.5688 61.4922C47.8996 61.1824 48.2924 60.9366 48.7247 60.7689C49.157 60.6012 49.6203 60.5149 50.0883 60.5149H67.4876C67.5566 60.5149 67.6228 60.5406 67.6716 60.5862C67.7203 60.6319 67.7477 60.6939 67.7477 60.7585C67.7477 60.823 67.7203 60.885 67.6716 60.9307C67.6228 60.9763 67.5566 61.002 67.4876 61.002H50.0883C49.2817 61.0027 48.5084 61.3032 47.9383 61.8375C47.3683 62.3719 47.048 63.0963 47.048 63.8516C47.048 64.6069 47.3683 65.3314 47.9383 65.8657C48.5084 66.4 49.2817 66.7006 50.0883 66.7012H67.4876C67.5566 66.7013 67.6228 66.7269 67.6715 66.7726C67.7203 66.8183 67.7477 66.8802 67.7477 66.9448Z" fill="#3F3D56"/>
<path d="M67.3315 62.1223H49.1259C49.119 62.1224 49.1122 62.1211 49.1058 62.1187C49.0995 62.1163 49.0937 62.1127 49.0888 62.1082C49.084 62.1036 49.0801 62.0983 49.0775 62.0923C49.0748 62.0864 49.0735 62.08 49.0735 62.0736C49.0735 62.0672 49.0748 62.0608 49.0775 62.0549C49.0801 62.049 49.084 62.0436 49.0888 62.0391C49.0937 62.0345 49.0995 62.0309 49.1058 62.0285C49.1122 62.0261 49.119 62.0249 49.1259 62.0249H67.3315C67.3452 62.025 67.3584 62.0302 67.3681 62.0393C67.3777 62.0484 67.3832 62.0608 67.3832 62.0736C67.3832 62.0865 67.3777 62.0988 67.3681 62.1079C67.3584 62.1171 67.3452 62.1222 67.3315 62.1223Z" fill="#CCCCCC"/>
<path d="M67.3315 63.2914H49.1259C49.119 63.2914 49.1122 63.2902 49.1058 63.2878C49.0995 63.2853 49.0937 63.2818 49.0888 63.2772C49.084 63.2727 49.0801 63.2673 49.0775 63.2614C49.0748 63.2555 49.0735 63.2491 49.0735 63.2427C49.0735 63.2363 49.0748 63.2299 49.0775 63.224C49.0801 63.218 49.084 63.2126 49.0888 63.2081C49.0937 63.2036 49.0995 63.2 49.1058 63.1976C49.1122 63.1952 49.119 63.1939 49.1259 63.194H67.3315C67.3452 63.1941 67.3584 63.1992 67.3681 63.2083C67.3777 63.2175 67.3832 63.2298 67.3832 63.2427C67.3832 63.2555 67.3777 63.2679 67.3681 63.277C67.3584 63.2861 67.3452 63.2913 67.3315 63.2914Z" fill="#CCCCCC"/>
<path d="M67.3315 64.4605H49.1259C49.119 64.4605 49.1122 64.4593 49.1058 64.4568C49.0995 64.4544 49.0937 64.4508 49.0888 64.4463C49.084 64.4418 49.0801 64.4364 49.0775 64.4305C49.0748 64.4245 49.0735 64.4182 49.0735 64.4117C49.0735 64.4053 49.0748 64.399 49.0775 64.393C49.0801 64.3871 49.084 64.3817 49.0888 64.3772C49.0937 64.3727 49.0995 64.3691 49.1058 64.3666C49.1122 64.3642 49.119 64.363 49.1259 64.363H67.3315C67.3452 64.3631 67.3584 64.3683 67.3681 64.3774C67.3777 64.3865 67.3832 64.3989 67.3832 64.4117C67.3832 64.4246 67.3777 64.4369 67.3681 64.4461C67.3584 64.4552 67.3452 64.4604 67.3315 64.4605Z" fill="#CCCCCC"/>
<path d="M67.3315 65.6295H49.1259C49.119 65.6296 49.1122 65.6283 49.1058 65.6259C49.0995 65.6235 49.0937 65.6199 49.0888 65.6154C49.084 65.6109 49.0801 65.6055 49.0775 65.5995C49.0748 65.5936 49.0735 65.5872 49.0735 65.5808C49.0735 65.5744 49.0748 65.568 49.0775 65.5621C49.0801 65.5562 49.084 65.5508 49.0888 65.5463C49.0937 65.5417 49.0995 65.5381 49.1058 65.5357C49.1122 65.5333 49.119 65.5321 49.1259 65.5321H67.3315C67.3452 65.5322 67.3584 65.5374 67.3681 65.5465C67.3777 65.5556 67.3832 65.568 67.3832 65.5808C67.3832 65.5937 67.3777 65.606 67.3681 65.6151C67.3584 65.6243 67.3452 65.6294 67.3315 65.6295Z" fill="#CCCCCC"/>
<path d="M87.0398 96.1736V90.6523C87.0398 90.4082 86.9363 90.1742 86.752 90.0016C86.5677 89.829 86.3178 89.7321 86.0571 89.7321H63.7017C63.441 89.7321 63.1911 89.829 63.0068 90.0016C62.8225 90.1742 62.719 90.4082 62.719 90.6523V96.1736H87.0398Z" fill="#CCCCCC"/>
<path d="M87.0398 98.2441H62.719V105.376H87.0398V98.2441Z" fill="#CCCCCC"/>
<path d="M62.719 107.446V112.968C62.719 113.212 62.8225 113.446 63.0068 113.618C63.1911 113.791 63.441 113.888 63.7017 113.888H86.0571C86.3178 113.888 86.5677 113.791 86.752 113.618C86.9363 113.446 87.0398 113.212 87.0398 112.968V107.446H62.719Z" fill="#CCCCCC"/>
<path d="M74.7565 93.873C75.1636 93.873 75.4935 93.564 75.4935 93.1828C75.4935 92.8017 75.1636 92.4927 74.7565 92.4927C74.3495 92.4927 74.0195 92.8017 74.0195 93.1828C74.0195 93.564 74.3495 93.873 74.7565 93.873Z" fill="white"/>
<path d="M74.7565 103.075C75.1636 103.075 75.4935 102.766 75.4935 102.385C75.4935 102.004 75.1636 101.695 74.7565 101.695C74.3495 101.695 74.0195 102.004 74.0195 102.385C74.0195 102.766 74.3495 103.075 74.7565 103.075Z" fill="white"/>
<path d="M74.7961 112.083C75.2031 112.083 75.5331 111.774 75.5331 111.393C75.5331 111.011 75.2031 110.702 74.7961 110.702C74.389 110.702 74.0591 111.011 74.0591 111.393C74.0591 111.774 74.389 112.083 74.7961 112.083Z" fill="white"/>
<path d="M84.2824 83.4366V89.7691H67.3408C66.8869 89.7839 66.4345 89.7129 66.0105 89.5605C65.5865 89.408 65.1996 89.1772 64.8729 88.8817C64.5462 88.5862 64.2864 88.2322 64.109 87.8407C63.9315 87.4491 63.8401 87.0282 63.8401 86.6029C63.8401 86.1775 63.9315 85.7566 64.109 85.365C64.2864 84.9735 64.5462 84.6195 64.8729 84.324C65.1996 84.0285 65.5865 83.7977 66.0105 83.6452C66.4345 83.4928 66.8869 83.4218 67.3408 83.4366H84.2824Z" fill="#F2F2F2"/>
<path d="M84.6987 89.7203C84.6987 89.7849 84.6713 89.8468 84.6225 89.8925C84.5737 89.9382 84.5076 89.9638 84.4386 89.9639H67.0392C66.571 89.9642 66.1074 89.8782 65.6748 89.7107C65.2421 89.5431 64.849 89.2974 64.5178 88.9875C64.1866 88.6777 63.9239 88.3097 63.7446 87.9047C63.5654 87.4997 63.4731 87.0655 63.4731 86.6271C63.4731 86.1887 63.5654 85.7546 63.7446 85.3496C63.9239 84.9446 64.1866 84.5766 64.5178 84.2667C64.849 83.9568 65.2421 83.7111 65.6748 83.5436C66.1074 83.3761 66.571 83.29 67.0392 83.2904H84.4386C84.5076 83.2904 84.5737 83.3161 84.6225 83.3617C84.6713 83.4074 84.6987 83.4694 84.6987 83.534C84.6987 83.5986 84.6713 83.6605 84.6225 83.7062C84.5737 83.7519 84.5076 83.7775 84.4386 83.7775H67.0392C66.2326 83.7782 65.4594 84.0787 64.8893 84.613C64.3192 85.1474 63.999 85.8718 63.999 86.6271C63.999 87.3824 64.3192 88.1069 64.8893 88.6412C65.4594 89.1755 66.2326 89.4761 67.0392 89.4767H84.4386C84.5076 89.4768 84.5737 89.5024 84.6225 89.5481C84.6712 89.5938 84.6987 89.6557 84.6987 89.7203Z" fill="#3F3D56"/>
<path d="M84.2824 84.898H66.0768C66.0699 84.898 66.0631 84.8968 66.0568 84.8943C66.0504 84.8919 66.0446 84.8883 66.0398 84.8838C66.0349 84.8793 66.031 84.8739 66.0284 84.868C66.0258 84.862 66.0244 84.8557 66.0244 84.8492C66.0244 84.8428 66.0258 84.8365 66.0284 84.8305C66.031 84.8246 66.0349 84.8192 66.0398 84.8147C66.0446 84.8102 66.0504 84.8066 66.0568 84.8041C66.0631 84.8017 66.0699 84.8005 66.0768 84.8005H84.2824C84.2962 84.8006 84.3093 84.8058 84.319 84.8149C84.3287 84.8241 84.3341 84.8364 84.3341 84.8492C84.3341 84.8621 84.3287 84.8745 84.319 84.8836C84.3093 84.8927 84.2962 84.8979 84.2824 84.898Z" fill="#CCCCCC"/>
<path d="M84.2824 86.067H66.0768C66.0699 86.0671 66.0631 86.0658 66.0568 86.0634C66.0504 86.061 66.0446 86.0574 66.0398 86.0529C66.0349 86.0483 66.031 86.043 66.0284 86.037C66.0258 86.0311 66.0244 86.0247 66.0244 86.0183C66.0244 86.0119 66.0258 86.0055 66.0284 85.9996C66.031 85.9937 66.0349 85.9883 66.0398 85.9837C66.0446 85.9792 66.0504 85.9756 66.0568 85.9732C66.0631 85.9708 66.0699 85.9696 66.0768 85.9696H84.2824C84.2962 85.9697 84.3093 85.9749 84.319 85.984C84.3287 85.9931 84.3341 86.0055 84.3341 86.0183C84.3341 86.0312 84.3287 86.0435 84.319 86.0526C84.3093 86.0618 84.2962 86.0669 84.2824 86.067Z" fill="#CCCCCC"/>
<path d="M84.2824 87.2361H66.0768C66.0699 87.2361 66.0631 87.2349 66.0568 87.2325C66.0504 87.2301 66.0446 87.2265 66.0398 87.2219C66.0349 87.2174 66.031 87.212 66.0284 87.2061C66.0258 87.2002 66.0244 87.1938 66.0244 87.1874C66.0244 87.181 66.0258 87.1746 66.0284 87.1687C66.031 87.1627 66.0349 87.1573 66.0398 87.1528C66.0446 87.1483 66.0504 87.1447 66.0568 87.1423C66.0631 87.1399 66.0699 87.1386 66.0768 87.1387H84.2824C84.2962 87.1388 84.3093 87.1439 84.319 87.1531C84.3287 87.1622 84.3341 87.1745 84.3341 87.1874C84.3341 87.2002 84.3287 87.2126 84.319 87.2217C84.3093 87.2308 84.2962 87.236 84.2824 87.2361Z" fill="#CCCCCC"/>
<path d="M84.2824 88.4052H66.0768C66.0699 88.4052 66.0631 88.404 66.0568 88.4016C66.0504 88.3991 66.0446 88.3955 66.0398 88.391C66.0349 88.3865 66.031 88.3811 66.0284 88.3752C66.0258 88.3692 66.0244 88.3629 66.0244 88.3565C66.0244 88.35 66.0258 88.3437 66.0284 88.3377C66.031 88.3318 66.0349 88.3264 66.0398 88.3219C66.0446 88.3174 66.0504 88.3138 66.0568 88.3113C66.0631 88.3089 66.0699 88.3077 66.0768 88.3077H84.2824C84.2962 88.3078 84.3093 88.313 84.319 88.3221C84.3287 88.3313 84.3341 88.3436 84.3341 88.3565C84.3341 88.3693 84.3287 88.3817 84.319 88.3908C84.3093 88.3999 84.2962 88.4051 84.2824 88.4052Z" fill="#CCCCCC"/>
<path d="M61.4434 42.1053V1.73036C61.4439 1.2716 61.6388 0.831779 61.9852 0.507388C62.3316 0.182996 62.8012 0.000521823 63.2911 0H97.3718C97.8617 0.000524862 98.3314 0.183 98.6778 0.507391C99.0242 0.831782 99.219 1.2716 99.2196 1.73036V42.1053C99.219 42.5641 99.0242 43.0039 98.6778 43.3283C98.3314 43.6527 97.8617 43.8351 97.3718 43.8357H63.2911C62.8012 43.8351 62.3316 43.6527 61.9852 43.3283C61.6388 43.0039 61.4439 42.5641 61.4434 42.1053ZM63.2911 0.384524C62.9101 0.384924 62.5448 0.526846 62.2754 0.779151C62.0059 1.03146 61.8544 1.37354 61.854 1.73036V42.1053C61.8544 42.4621 62.0059 42.8042 62.2754 43.0565C62.5448 43.3088 62.9101 43.4507 63.2911 43.4511H97.3718C97.7528 43.4507 98.1181 43.3088 98.3876 43.0565C98.657 42.8042 98.8085 42.4621 98.809 42.1053V1.73036C98.8085 1.37354 98.657 1.03146 98.3876 0.779151C98.1181 0.526846 97.7528 0.384924 97.3718 0.384524H63.2911Z" fill="#E6E6E6"/>
<path d="M82.2424 18.542V10.2518C82.2427 10.0224 82.3401 9.80248 82.5133 9.64029C82.6865 9.47809 82.9214 9.38685 83.1663 9.3866H90.6682C90.9131 9.38685 91.1479 9.47809 91.3211 9.64029C91.4943 9.80248 91.5918 10.0224 91.592 10.2518V18.542C91.5918 18.7714 91.4943 18.9913 91.3211 19.1535C91.1479 19.3157 90.9131 19.407 90.6682 19.4072H83.1663C82.9214 19.407 82.6865 19.3157 82.5133 19.1535C82.3401 18.9913 82.2427 18.7714 82.2424 18.542Z" fill="#D90429"/>
<path d="M67.6658 22.3872V14.097C67.666 13.8676 67.7635 13.6477 67.9367 13.4855C68.1099 13.3233 68.3447 13.2321 68.5897 13.2318H76.0915C76.3365 13.2321 76.5713 13.3233 76.7445 13.4855C76.9177 13.6477 77.0151 13.8676 77.0154 14.097V22.3872C77.0151 22.6166 76.9177 22.8365 76.7445 22.9987C76.5713 23.1609 76.3365 23.2522 76.0915 23.2524H68.5897C68.3447 23.2522 68.1099 23.1609 67.9367 22.9987C67.7635 22.8365 67.666 22.6166 67.6658 22.3872Z" fill="#CCCCCC"/>
<path d="M79.3682 34.1153V25.825C79.3684 25.5956 79.4659 25.3757 79.6391 25.2135C79.8123 25.0513 80.0471 24.9601 80.292 24.9598H87.7939C88.0388 24.9601 88.2737 25.0513 88.4469 25.2135C88.6201 25.3757 88.7175 25.5956 88.7178 25.825V34.1153C88.7175 34.3446 88.6201 34.5646 88.4469 34.7268C88.2737 34.889 88.0389 34.9802 87.7939 34.9804H80.292C80.0471 34.9802 79.8123 34.889 79.6391 34.7268C79.4659 34.5646 79.3684 34.3446 79.3682 34.1153Z" fill="#FF6584"/>
<path d="M124.199 72.0177H116.48C116.407 72.0177 116.335 72.0334 116.269 72.0637L114.321 72.9771C114.257 73.0026 114.202 73.0452 114.163 73.0996C114.125 73.154 114.104 73.2178 114.104 73.283C114.104 73.3483 114.125 73.4121 114.163 73.4665C114.202 73.5209 114.257 73.5635 114.321 73.589L116.269 74.5023C116.335 74.5327 116.407 74.5484 116.48 74.5483H124.199C124.305 74.5541 124.41 74.5204 124.49 74.4545C124.57 74.3886 124.619 74.2959 124.626 74.1964V72.3697C124.619 72.2702 124.57 72.1774 124.49 72.1115C124.41 72.0457 124.305 72.012 124.199 72.0177Z" fill="#3F3D56"/>
<path d="M124.626 72.3696V74.1962C124.619 74.2958 124.57 74.3885 124.49 74.4544C124.41 74.5203 124.305 74.554 124.199 74.5482H122.661V72.0176H124.199C124.305 72.0118 124.41 72.0456 124.49 72.1114C124.57 72.1773 124.619 72.2701 124.626 72.3696Z" fill="#D90429"/>
<path d="M124.141 58.3522C124.491 58.2109 124.868 58.1404 125.249 58.1453C125.63 58.1501 126.005 58.2303 126.35 58.3805C126.696 58.5307 127.003 58.7475 127.253 59.0168C127.503 59.286 127.689 59.6016 127.799 59.9429C127.833 60.0512 127.86 60.1615 127.878 60.2731L138.672 65.2856L141.17 63.7353L144.278 67.0862L140.464 69.9872C140.005 70.3333 139.439 70.5317 138.851 70.553C138.262 70.5743 137.682 70.4172 137.196 70.1052L126.244 63.013C126.163 63.0453 126.08 63.0737 125.995 63.0981C125.631 63.2013 125.247 63.2313 124.869 63.186C124.491 63.1407 124.128 63.0211 123.803 62.8352C123.478 62.6492 123.199 62.4011 122.984 62.107C122.768 61.8129 122.622 61.4795 122.553 61.1286C122.533 61.0268 122.52 60.9239 122.513 60.8205C122.483 60.3026 122.623 59.7885 122.914 59.3472C123.205 58.9059 123.633 58.5587 124.141 58.3522Z" fill="#FFB8B8"/>
<path d="M146.623 89.2141H134.829C134.829 89.5316 122.673 89.7893 122.673 89.7893C122.482 89.9238 122.309 90.0781 122.155 90.2494C121.693 90.765 121.441 91.4169 121.442 92.0898V92.5499C121.443 93.3125 121.766 94.0438 122.342 94.5831C122.918 95.1223 123.699 95.4254 124.513 95.4256H146.623C147.437 95.425 148.218 95.1218 148.794 94.5826C149.369 94.0435 149.693 93.3124 149.694 92.5499V92.0898C149.693 91.3275 149.369 90.5966 148.793 90.0576C148.218 89.5185 147.437 89.2152 146.623 89.2141Z" fill="#3F3D56"/>
<path d="M133.793 114.636H136.987V95.3113H133.793V114.636Z" fill="#3F3D56"/>
<path d="M124.704 114.531C124.704 114.854 129.543 114.656 135.513 114.656C141.483 114.656 146.322 114.854 146.322 114.531C146.322 114.208 141.483 111.645 135.513 111.645C129.543 111.645 124.704 114.208 124.704 114.531Z" fill="#3F3D56"/>
<path d="M127.587 112.266L124.575 112.266L123.142 104.951L127.587 104.951L127.587 112.266Z" fill="#FFB8B8"/>
<path d="M128.355 115L118.644 115V114.885C118.644 114.42 118.741 113.96 118.931 113.53C119.121 113.101 119.4 112.71 119.751 112.382C120.102 112.053 120.518 111.792 120.977 111.614C121.436 111.437 121.927 111.345 122.423 111.345H122.424L128.355 111.345L128.355 115Z" fill="#2B2D42"/>
<path d="M123.082 107.73L117.078 95.1209C116.577 94.0582 116.521 92.8576 116.923 91.7583C117.324 90.6591 118.153 89.7417 119.244 89.1891L132.268 82.6491L138.211 82.1757L143.693 81.7091L143.732 81.7718C143.783 81.8518 144.962 83.7583 144.165 85.8488C143.56 87.4345 141.989 88.673 139.493 89.5301C133.667 91.5306 126.937 93.2403 124.314 93.8824C124.198 93.9101 124.09 93.9605 123.996 94.0303C123.902 94.1001 123.826 94.1876 123.771 94.2872C123.716 94.3856 123.683 94.4936 123.675 94.6044C123.666 94.7152 123.683 94.8265 123.722 94.9311L129.301 106.667C129.359 106.816 129.38 106.976 129.362 107.133C129.344 107.291 129.288 107.443 129.197 107.577C129.107 107.711 128.985 107.823 128.84 107.906C128.696 107.989 128.533 108.04 128.365 108.054L124.197 108.339C124.161 108.342 124.126 108.343 124.091 108.343C123.878 108.343 123.669 108.285 123.49 108.176C123.311 108.068 123.169 107.912 123.082 107.73Z" fill="#2B2D42"/>
<path d="M129.061 112.266L126.049 112.266L124.616 104.951L129.061 104.951L129.061 112.266Z" fill="#FFB8B8"/>
<path d="M129.829 115L120.118 115V114.885C120.118 114.42 120.215 113.96 120.405 113.53C120.595 113.101 120.874 112.71 121.225 112.382C121.576 112.053 121.992 111.792 122.451 111.614C122.91 111.437 123.401 111.345 123.898 111.345H123.898L129.829 111.345L129.829 115Z" fill="#2B2D42"/>
<path d="M124.802 108.42L118.798 95.8111C118.296 94.7484 118.241 93.5478 118.642 92.4485C119.044 91.3493 119.873 90.4319 120.964 89.8793L133.988 83.3393L139.931 82.8659L145.413 82.3993L145.452 82.462C145.503 82.542 146.681 84.4485 145.885 86.539C145.28 88.1246 143.708 89.3632 141.212 90.2203C135.387 92.2207 128.657 93.9305 126.034 94.5725C125.918 94.6003 125.809 94.6507 125.716 94.7205C125.622 94.7903 125.545 94.8778 125.49 94.9774C125.435 95.0758 125.403 95.1838 125.394 95.2946C125.386 95.4054 125.402 95.5166 125.442 95.6213L131.02 107.358C131.079 107.506 131.1 107.666 131.082 107.823C131.064 107.981 131.007 108.133 130.917 108.267C130.827 108.401 130.704 108.514 130.56 108.596C130.416 108.679 130.253 108.73 130.085 108.745L125.916 109.029C125.881 109.032 125.846 109.034 125.811 109.034C125.597 109.033 125.388 108.975 125.209 108.867C125.03 108.758 124.889 108.603 124.802 108.42Z" fill="#2B2D42"/>
<path d="M121.809 69.9014C119.286 66.7585 117.291 63.2725 115.895 59.5645C115.814 59.3427 115.819 59.1012 115.911 58.883C116.002 58.6648 116.173 58.4841 116.394 58.373L125.028 54.0406C125.167 53.97 125.322 53.9302 125.481 53.9241C125.64 53.9181 125.798 53.9461 125.943 54.0058C126.091 54.0661 126.222 54.1572 126.327 54.2721C126.432 54.3871 126.507 54.523 126.548 54.6693C127.553 58.2425 129.442 61.5439 132.062 64.3066C132.17 64.419 132.249 64.553 132.293 64.6984C132.337 64.8438 132.345 64.9967 132.317 65.1455C132.289 65.2919 132.227 65.4306 132.134 65.5509C132.04 65.6712 131.919 65.77 131.779 65.8398L123.145 70.1722C122.924 70.2824 122.669 70.3158 122.424 70.2662C122.179 70.2166 121.962 70.0873 121.809 69.9014Z" fill="#CCCCCC"/>
<path d="M122.398 69.4868C122.445 69.5411 122.51 69.5785 122.583 69.5926C122.656 69.6067 122.731 69.5965 122.797 69.5639L131.431 65.2315C131.473 65.211 131.509 65.1817 131.537 65.1459C131.565 65.1101 131.583 65.0688 131.591 65.0251C131.6 64.979 131.598 64.9316 131.584 64.8866C131.57 64.8416 131.545 64.8002 131.511 64.7656C128.814 61.9216 126.869 58.5229 125.835 54.8444C125.823 54.799 125.8 54.7567 125.768 54.721C125.735 54.6853 125.695 54.6571 125.649 54.6385C125.605 54.6204 125.558 54.6119 125.511 54.6138C125.464 54.6156 125.417 54.6277 125.376 54.6491L116.742 58.9814C116.677 59.0145 116.626 59.0679 116.598 59.1325C116.57 59.1971 116.567 59.2687 116.59 59.335C117.962 62.9766 119.921 66.4002 122.398 69.4868Z" fill="white"/>
<path d="M150.492 68.7457L143.731 71.152L142.08 66.8576C141.86 66.2873 141.864 65.6629 142.088 65.0946C142.313 64.5263 142.745 64.0507 143.308 63.7519C143.878 63.4497 144.544 63.3481 145.187 63.4656C145.829 63.5831 146.406 63.9118 146.812 64.3925L150.492 68.7457Z" fill="#D90429"/>
<path d="M133.293 85.7607C133.151 85.6665 133.032 85.5449 132.943 85.4041C132.855 85.2633 132.8 85.1066 132.781 84.9443C131.915 77.3732 132.519 71.4482 134.625 66.8308C134.996 66.0344 135.555 65.3271 136.26 64.7621C136.965 64.1971 137.798 63.7891 138.695 63.5687L144.161 63.3103L144.189 63.3231C145.423 63.8889 146.429 64.8118 147.058 65.955C147.687 67.0983 147.906 68.401 147.683 69.67C145.925 74.0096 144.453 78.5279 145.575 82.1727C145.622 82.3251 145.636 82.4848 145.616 82.6423C145.595 82.7997 145.541 82.9517 145.456 83.0891C145.374 83.2219 145.264 83.3376 145.132 83.4289C145.001 83.5203 144.85 83.5854 144.691 83.6203L134.28 85.9395C134.111 85.9771 133.936 85.9806 133.766 85.9497C133.596 85.9189 133.435 85.8545 133.293 85.7607Z" fill="#D90429"/>
<path d="M142.337 61.3985C145.669 61.3985 148.371 58.8687 148.371 55.7481C148.371 52.6274 145.669 50.0977 142.337 50.0977C139.005 50.0977 136.303 52.6274 136.303 55.7481C136.303 58.8687 139.005 61.3985 142.337 61.3985Z" fill="#FFB8B8"/>
<path d="M125.594 60.2233L120.892 62.1672C120.713 62.2409 120.51 62.2452 120.328 62.1791C120.146 62.113 119.999 61.9818 119.92 61.8145L119.804 61.5678C119.725 61.4003 119.72 61.2104 119.791 61.0398C119.862 60.8692 120.002 60.7318 120.18 60.6577L124.883 58.7138C125.062 58.6401 125.264 58.6358 125.447 58.702C125.629 58.7681 125.775 58.8992 125.855 59.0665L125.971 59.3132C126.05 59.4807 126.054 59.6706 125.984 59.8412C125.913 60.0118 125.773 60.1493 125.594 60.2233Z" fill="#CCCCCC"/>
<path d="M127.314 63.2142L122.612 65.1581C122.433 65.2318 122.23 65.236 122.048 65.1699C121.866 65.1038 121.719 64.9727 121.64 64.8054L121.523 64.5586C121.445 64.3912 121.44 64.2013 121.511 64.0307C121.581 63.86 121.721 63.7226 121.9 63.6485L126.602 61.7047C126.781 61.6309 126.984 61.6267 127.166 61.6928C127.348 61.7589 127.495 61.89 127.574 62.0573L127.691 62.3041C127.769 62.4716 127.774 62.6614 127.703 62.8321C127.633 63.0027 127.493 63.1401 127.314 63.2142Z" fill="#CCCCCC"/>
<path d="M130.941 74.8958L120.457 67.1507C120.374 67.1782 120.289 67.2017 120.203 67.221C119.833 67.3021 119.449 67.3093 119.075 67.2423C118.702 67.1752 118.348 67.0354 118.036 66.8319C117.723 66.6282 117.459 66.3642 117.263 66.0573C117.067 65.7505 116.943 65.408 116.9 65.0528C116.83 64.4849 116.966 63.9114 117.288 63.4254C117.609 62.9394 118.097 62.5693 118.671 62.3753C119.029 62.2549 119.411 62.2068 119.79 62.2341C120.17 62.2614 120.539 62.3635 120.874 62.5338C121.209 62.704 121.501 62.9385 121.732 63.2219C121.963 63.5053 122.128 63.8313 122.215 64.1784C122.242 64.2884 122.261 64.4 122.271 64.5125L132.707 70.1505L135.304 68.7503L138.181 72.2775L134.149 74.969C133.677 75.2815 133.11 75.4432 132.532 75.43C131.954 75.4168 131.396 75.2294 130.941 74.8958Z" fill="#FFB8B8"/>
<path d="M139.461 73.376L133.479 69.5669L136.29 65.8384C136.663 65.3433 137.212 64.9877 137.838 64.8345C138.464 64.6812 139.128 64.7402 139.712 65.001C140.303 65.2648 140.774 65.7177 141.039 66.2781C141.305 66.8385 141.348 67.4694 141.16 68.0567L139.461 73.376Z" fill="#D90429"/>
<path d="M140.125 54.9065C138.574 55.9004 136.538 56.9222 134.954 55.8637C133.914 55.1687 133.586 53.8816 134.008 52.7522C134.766 50.7211 136.85 49.827 138.843 49.1416C141.433 48.2505 144.254 47.5417 146.928 48.1798C149.602 48.8179 151.965 51.2425 151.483 53.787C151.094 55.8331 149.033 57.5357 149.326 59.5958C149.62 61.6691 152.11 62.7604 154.308 63.131C156.507 63.5015 158.966 63.6206 160.546 65.0992C162.561 66.9853 162.058 70.3567 160.162 72.3481C158.265 74.3396 155.404 75.2423 152.631 75.8559C148.957 76.669 144.984 77.0963 141.495 75.747C138.005 74.3976 135.29 70.7652 136.301 67.3591C136.728 65.9204 137.734 64.7045 138.706 63.5208C139.678 62.337 140.662 61.0992 141.033 59.6469C141.342 58.4366 141.113 57.0314 140.256 56.1236C140.1 55.9647 140.002 55.7636 139.976 55.5492C139.95 55.3349 139.997 55.1182 140.11 54.9304L140.125 54.9065Z" fill="#2B2D42"/>
<path d="M26.7952 82.36C25.2405 82.8718 23.5711 83 21.9481 82.7323C20.325 82.4645 18.8029 81.8099 17.5285 80.8313C14.2828 78.2802 13.2651 74.0772 12.4371 70.1855C11.6208 66.3485 10.8044 62.5114 9.98804 58.6744L15.1155 61.9807C18.8028 64.3583 22.5732 66.8122 25.1263 70.2561C27.6794 73.7 28.7938 78.4013 26.7425 82.1277" fill="#E6E6E6"/>
<path d="M26.3569 96.2964C26.8759 92.7564 27.4095 89.171 27.0455 85.593C26.7222 82.4154 25.687 79.3118 23.5795 76.7671C22.4608 75.4189 21.0996 74.2638 19.557 73.3536C19.1547 73.1159 18.7845 73.7128 19.185 73.9496C21.8541 75.5293 23.9185 77.8619 25.0807 80.6112C26.3643 83.6685 26.5704 87.0013 26.3492 90.249C26.2154 92.2131 25.9319 94.1642 25.6463 96.1129C25.6237 96.201 25.6378 96.2939 25.6856 96.3727C25.7333 96.4515 25.8113 96.5104 25.9036 96.5374C25.9979 96.5612 26.0983 96.5492 26.1832 96.5041C26.268 96.459 26.3305 96.3844 26.3569 96.2964Z" fill="#F2F2F2"/>
<path d="M21.3584 90.0323C20.6916 90.9814 19.775 91.7537 18.6969 92.2747C17.6189 92.7958 16.4157 93.048 15.2033 93.0072C12.0875 92.8687 9.48993 90.8323 7.15162 88.8989L0.235352 83.1803L4.81278 82.9752C8.10459 82.8276 11.4813 82.69 14.6167 83.6407C17.752 84.5913 20.6436 86.8791 21.2169 89.9183" fill="#E6E6E6"/>
<path d="M27.8235 98.3314C25.3256 94.1924 22.4284 89.5924 17.2514 88.1221C15.8119 87.7147 14.3026 87.5688 12.8046 87.6921C12.3325 87.7303 12.4504 88.4118 12.9216 88.3737C15.4326 88.1785 17.9387 88.7994 20.018 90.1319C22.0189 91.4073 23.5768 93.1805 24.8955 95.0609C25.7032 96.2127 26.4266 97.4134 27.1503 98.6124C27.3815 98.9956 28.0574 98.719 27.8235 98.3314Z" fill="#F2F2F2"/>
<path d="M31.8258 102.688C31.7416 101.775 31.3915 100.901 30.8135 100.161C30.2356 99.4212 29.4519 98.8441 28.5479 98.4926V96.0997H24.2623V98.568C23.4029 98.9368 22.6632 99.5124 22.1187 100.236C21.5742 100.96 21.2445 101.806 21.163 102.688L20.1553 113.658H32.8335L31.8258 102.688Z" fill="#F2F2F2"/>
</g>
<defs>
<clipPath id="clip0_26_73">
<rect width="170" height="115" fill="white"/>
</clipPath>
</defs>
</svg>
