<svg width="500" height="360" viewBox="0 0 500 360" fill="none" xmlns="http://www.w3.org/2000/svg">
<g clip-path="url(#clip0_26_278)">
<path d="M255.36 359.237C270.399 359.237 282.59 346.782 282.59 331.417C282.59 316.053 270.399 303.598 255.36 303.598C240.322 303.598 228.131 316.053 228.131 331.417C228.131 346.782 240.322 359.237 255.36 359.237Z" fill="#A3142C"/>
<path d="M418.03 357.674C433.263 353 449.459 348.126 461.54 337.014C472.335 327.085 479.624 311.923 475.151 297.032C470.688 282.171 457.32 272.262 443.517 267.334C435.688 264.539 427.498 262.988 419.312 261.77C410.412 260.445 401.473 259.361 392.538 258.316C356.359 254.089 320.045 251.506 283.594 250.569C265.608 250.106 247.626 250.117 229.637 250.384C213.572 250.622 196.653 250.616 181.749 243.64C170.16 238.215 159.642 228.346 156.412 215.377C152.685 200.406 159.56 185.16 169.423 174.317C174.622 168.602 180.698 163.792 186.966 159.369C193.766 154.571 200.803 150.112 207.993 145.95C222.152 137.757 236.956 130.784 252.25 125.104C259.795 122.302 267.452 119.883 275.175 117.653C281.696 115.769 288.238 113.883 294.541 111.316C306.725 106.355 318.314 97.9506 321.412 84.1729C324.348 71.1149 319.397 56.9394 310.718 47.2388C300.677 36.016 285.537 31.0963 271.022 30.3003C254.727 29.4066 238.807 33.5733 223.491 38.8614C207.156 44.5015 191.172 50.9867 174.491 55.5551C157.95 60.0809 141.089 63.2832 124.06 65.1327C115.724 66.0396 107.136 67.0636 98.7509 66.3693C91.7231 65.7875 84.7312 63.6758 79.5518 58.58C75.1107 54.2107 72.4651 48.2057 73.3747 41.8686C73.5399 40.7176 75.2513 41.207 75.0871 42.351C73.9799 50.0649 79.1123 57.1732 85.4367 60.8143C92.7461 65.0226 101.641 65.0283 109.778 64.547C127.424 63.4582 144.949 60.8698 162.174 56.8085C179.099 52.859 195.42 47.213 211.722 41.1817C227.205 35.4535 243.034 29.8628 259.575 28.6221C273.927 27.5456 289.025 29.6818 301.528 37.3449C312.517 44.0797 320.598 55.3111 323.172 68.1994C325.689 80.7937 322.204 93.47 312.873 102.259C303.211 111.358 289.964 115.249 277.619 118.832C261.96 123.376 246.638 128.688 231.807 135.586C216.773 142.558 202.356 150.839 188.713 160.338C175.545 169.532 162.549 181.101 158.384 197.503C156.444 205.143 156.802 213.246 160.048 220.463C162.935 226.879 167.688 232.277 173.226 236.44C186.438 246.373 203.091 248.412 219.051 248.615C236.976 248.843 254.901 248.225 272.832 248.526C309.374 249.139 345.841 251.411 382.234 255.343C391.353 256.329 400.461 257.419 409.557 258.613C417.738 259.687 425.947 260.755 433.991 262.662C448.294 266.054 462.211 272.575 471.101 284.965C475.047 290.335 477.491 296.699 478.173 303.378C478.795 310.347 477.125 317.33 474.041 323.53C467.215 337.252 454.428 345.981 440.849 351.715C433.576 354.787 426.032 357.113 418.502 359.424C417.405 359.76 416.937 358.01 418.03 357.674Z" fill="#EDF2F4"/>
<path d="M74.5216 56.5466C82.3677 56.5466 88.7282 50.0482 88.7282 42.032C88.7282 34.0158 82.3677 27.5173 74.5216 27.5173C66.6755 27.5173 60.3149 34.0158 60.3149 42.032C60.3149 50.0482 66.6755 56.5466 74.5216 56.5466Z" fill="#EDF2F4"/>
<path d="M173.08 84.0639C180.926 84.0639 187.287 77.5655 187.287 69.5493C187.287 61.5331 180.926 55.0347 173.08 55.0347C165.234 55.0347 158.874 61.5331 158.874 69.5493C158.874 77.5655 165.234 84.0639 173.08 84.0639Z" fill="#EDF2F4"/>
<path d="M256.544 29.0293C264.39 29.0293 270.751 22.5308 270.751 14.5146C270.751 6.49842 264.39 0 256.544 0C248.698 0 242.337 6.49842 242.337 14.5146C242.337 22.5308 248.698 29.0293 256.544 29.0293Z" fill="#EDF2F4"/>
<path d="M308.635 90.7164C316.481 90.7164 322.842 84.218 322.842 76.2018C322.842 68.1856 316.481 61.6871 308.635 61.6871C300.789 61.6871 294.428 68.1856 294.428 76.2018C294.428 84.218 300.789 90.7164 308.635 90.7164Z" fill="#EDF2F4"/>
<path d="M238.194 162.08C246.04 162.08 252.401 155.582 252.401 147.565C252.401 139.549 246.04 133.051 238.194 133.051C230.348 133.051 223.987 139.549 223.987 147.565C223.987 155.582 230.348 162.08 238.194 162.08Z" fill="#EDF2F4"/>
<path d="M148.81 196.552C156.656 196.552 163.017 190.054 163.017 182.038C163.017 174.021 156.656 167.523 148.81 167.523C140.964 167.523 134.604 174.021 134.604 182.038C134.604 190.054 140.964 196.552 148.81 196.552Z" fill="#EDF2F4"/>
<path d="M243.521 250.377C251.367 250.377 257.728 243.879 257.728 235.863C257.728 227.847 251.367 221.348 243.521 221.348C235.675 221.348 229.314 227.847 229.314 235.863C229.314 243.879 235.675 250.377 243.521 250.377Z" fill="#EDF2F4"/>
<path d="M345.336 280.616C353.182 280.616 359.542 274.118 359.542 266.102C359.542 258.085 353.182 251.587 345.336 251.587C337.489 251.587 331.129 258.085 331.129 266.102C331.129 274.118 337.489 280.616 345.336 280.616Z" fill="#EDF2F4"/>
<path d="M464.316 273.964C472.162 273.964 478.523 267.465 478.523 259.449C478.523 251.433 472.162 244.934 464.316 244.934C456.47 244.934 450.109 251.433 450.109 259.449C450.109 267.465 456.47 273.964 464.316 273.964Z" fill="#EDF2F4"/>
<path d="M252.443 41.1269C209.887 41.434 175.043 76.7662 174.439 120.241C174.433 120.643 174.43 123.465 174.431 127.157C174.431 132.569 176.535 137.76 180.281 141.587C184.027 145.414 189.108 147.565 194.405 147.565C197.031 147.565 199.632 147.036 202.057 146.008C204.483 144.98 206.687 143.474 208.543 141.576C210.399 139.678 211.87 137.425 212.874 134.945C213.877 132.465 214.392 129.808 214.39 127.125C214.388 124.614 214.387 122.876 214.387 122.77C214.385 116.051 216.096 109.447 219.35 103.608C222.605 97.7694 227.29 92.8968 232.947 89.4695C238.604 86.0423 245.036 84.1785 251.612 84.0615C258.187 83.9445 264.679 85.5783 270.449 88.8022C276.219 92.0262 281.068 96.7291 284.519 102.449C287.971 108.168 289.905 114.707 290.133 121.422C290.361 128.137 288.873 134.797 285.818 140.746C282.762 146.696 278.243 151.73 272.705 155.355L272.712 155.363C272.712 155.363 244.282 174.063 235.614 199.715L235.622 199.716C234.098 204.972 233.325 210.424 233.329 215.905C233.329 218.158 233.459 237.871 233.709 253.872C233.797 259.392 236.005 264.656 239.858 268.528C243.711 272.4 248.899 274.57 254.303 274.568C257.018 274.568 259.707 274.02 262.214 272.954C264.721 271.888 266.998 270.326 268.912 268.359C270.826 266.391 272.34 264.056 273.368 261.487C274.395 258.919 274.916 256.169 274.899 253.395C274.812 238.742 274.765 221.679 274.765 220.441C274.765 204.69 289.638 188.996 301.854 178.761C315.922 166.976 326.046 150.916 330.112 132.799C331.012 129.069 331.508 125.249 331.591 121.409C331.591 110.817 329.54 100.33 325.555 90.5515C321.571 80.7733 315.732 71.8972 308.375 64.4347C301.018 56.9723 292.288 51.0709 282.689 47.0706C273.089 43.0704 262.81 41.0503 252.443 41.1269Z" fill="#A3142C"/>
<path d="M499.295 360H0.704732C0.518157 359.999 0.339412 359.923 0.207674 359.788C0.0759356 359.653 0.00195312 359.471 0.00195312 359.28C0.00195312 359.089 0.0759356 358.906 0.207674 358.771C0.339412 358.636 0.518157 358.56 0.704732 358.56H499.295C499.482 358.56 499.661 358.636 499.793 358.771C499.926 358.906 500 359.089 500 359.28C500 359.471 499.926 359.654 499.793 359.789C499.661 359.924 499.482 360 499.295 360Z" fill="#2B2D42"/>
<path d="M372.006 165.101C381.814 165.101 389.765 156.978 389.765 146.958C389.765 136.938 381.814 128.815 372.006 128.815C362.199 128.815 354.248 136.938 354.248 146.958C354.248 156.978 362.199 165.101 372.006 165.101Z" fill="#2B2D42"/>
<path d="M339.191 352.058H331.934L328.481 323.459H339.193L339.191 352.058Z" fill="#ED9DA0"/>
<path d="M326.75 349.939H340.746V358.942H317.938C317.938 357.76 318.166 356.589 318.609 355.497C319.052 354.405 319.701 353.412 320.519 352.576C321.337 351.74 322.309 351.077 323.378 350.624C324.447 350.172 325.593 349.939 326.75 349.939Z" fill="#2B2D42"/>
<path d="M395.425 352.058H388.169L384.716 323.459H395.427L395.425 352.058Z" fill="#ED9DA0"/>
<path d="M382.985 349.939H396.98V358.942H374.172C374.172 357.76 374.4 356.589 374.843 355.497C375.286 354.405 375.935 353.412 376.753 352.576C377.572 351.74 378.543 351.077 379.612 350.624C380.681 350.172 381.827 349.939 382.985 349.939Z" fill="#2B2D42"/>
<path d="M369.307 165.207C377.337 165.207 383.846 158.557 383.846 150.353C383.846 142.15 377.337 135.5 369.307 135.5C361.278 135.5 354.769 142.15 354.769 150.353C354.769 158.557 361.278 165.207 369.307 165.207Z" fill="#ED9DA0"/>
<path d="M377.973 213.127L384.478 197.856C386.058 194.274 386.511 190.279 385.774 186.422C385.037 182.566 383.147 179.038 380.364 176.326C379.793 175.749 379.186 175.209 378.547 174.711C375.337 172.146 371.381 170.748 367.306 170.738C364.566 170.749 361.86 171.364 359.374 172.54C359.161 172.637 358.954 172.74 358.741 172.843C358.332 173.042 357.93 173.26 357.539 173.484C354.991 174.979 352.822 177.064 351.208 179.573C349.593 182.082 348.579 184.943 348.245 187.926L345.374 212.504C344.652 214.433 318.891 284.103 327.9 337.293C327.996 337.861 328.267 338.383 328.674 338.782C329.081 339.182 329.602 339.438 330.162 339.513L339.295 340.783C339.962 340.876 340.639 340.708 341.189 340.312C341.739 339.915 342.122 339.321 342.261 338.648L357.586 264.013C357.682 263.549 357.927 263.131 358.282 262.826C358.637 262.522 359.082 262.347 359.546 262.331C360.009 262.315 360.465 262.458 360.839 262.738C361.214 263.018 361.486 263.417 361.611 263.873L383.265 342.361C383.419 342.932 383.752 343.434 384.213 343.793C384.674 344.151 385.237 344.345 385.816 344.345C385.989 344.344 386.161 344.328 386.331 344.297L397.489 342.101C398.138 341.977 398.718 341.61 399.115 341.072C399.513 340.534 399.699 339.864 399.638 339.192C397.998 320.511 389.285 226.934 377.973 213.127Z" fill="#2B2D42"/>
<path d="M312.806 162.715C312.705 163.598 312.795 164.493 313.069 165.337C313.344 166.181 313.796 166.953 314.394 167.599C314.992 168.245 315.721 168.749 316.53 169.076C317.339 169.403 318.209 169.544 319.077 169.491L327.204 189.444L333.352 180.133L324.692 162.613C324.507 161.128 323.795 159.764 322.692 158.779C321.588 157.795 320.17 157.258 318.705 157.27C317.24 157.283 315.83 157.844 314.743 158.848C313.656 159.851 312.967 161.227 312.806 162.715Z" fill="#ED9DA0"/>
<path d="M368.501 233.218C369.366 233.112 370.196 232.814 370.936 232.345C371.675 231.876 372.304 231.247 372.78 230.503C373.256 229.758 373.566 228.916 373.688 228.036C373.811 227.155 373.743 226.259 373.49 225.408L390.588 212.684L380.294 208.746L365.635 221.432C364.265 221.962 363.132 222.987 362.452 224.313C361.772 225.638 361.591 227.173 361.945 228.626C362.298 230.078 363.161 231.348 364.369 232.194C365.578 233.041 367.048 233.405 368.501 233.218Z" fill="#ED9DA0"/>
<path d="M340.628 202.746C339.972 202.745 339.318 202.679 338.675 202.549C337.12 202.247 335.661 201.558 334.428 200.544C333.195 199.53 332.225 198.221 331.603 196.733L320.217 182.55C319.977 182.25 319.801 181.901 319.704 181.526C319.606 181.151 319.587 180.76 319.649 180.377C319.712 179.994 319.853 179.63 320.065 179.308C320.276 178.986 320.552 178.713 320.875 178.509L328.975 173.386C329.274 173.197 329.607 173.07 329.955 173.013C330.302 172.956 330.657 172.97 330.999 173.054C331.341 173.138 331.663 173.29 331.947 173.502C332.232 173.713 332.472 173.98 332.655 174.288L340.679 187.795L356.047 176.191C357.27 175.536 358.684 175.352 360.029 175.673C361.375 175.995 362.562 176.8 363.374 177.942C364.186 179.083 364.569 180.486 364.453 181.892C364.337 183.299 363.73 184.616 362.742 185.602L347.403 199.897C345.601 201.723 343.166 202.746 340.628 202.746Z" fill="#2B2D42"/>
<path d="M382.153 224.078C382.132 224.078 382.111 224.078 382.09 224.077C381.716 224.068 381.349 223.979 381.011 223.815C380.674 223.651 380.374 223.417 380.13 223.127L372.928 214.544C372.683 214.251 372.501 213.909 372.395 213.54C372.289 213.17 372.261 212.782 372.312 212.401C372.364 212.019 372.494 211.653 372.694 211.327C372.894 211.001 373.16 210.722 373.473 210.508L386.959 201.323L374.742 186.317C374.031 185.107 373.771 183.675 374.007 182.285C374.244 180.894 374.963 179.637 376.032 178.743C377.101 177.849 378.45 177.378 379.831 177.416C381.212 177.454 382.534 177.998 383.554 178.949L398.402 193.774C399.571 194.865 400.463 196.229 401.002 197.749C401.541 199.27 401.711 200.901 401.497 202.503C401.283 204.106 400.692 205.631 399.774 206.948C398.856 208.266 397.639 209.336 396.227 210.067L384.091 223.223C383.842 223.493 383.541 223.708 383.208 223.855C382.875 224.002 382.516 224.078 382.153 224.078Z" fill="#2B2D42"/>
<path d="M365.611 192.448C365.495 192.448 365.38 192.441 365.265 192.426C364.763 192.364 364.29 192.156 363.901 191.827C363.511 191.498 363.223 191.062 363.069 190.57L357.657 173.619C357.521 173.19 357.542 172.726 357.716 172.312C357.889 171.898 358.203 171.562 358.6 171.366L358.776 171.281C358.935 171.204 359.093 171.127 359.254 171.054C361.777 169.858 364.524 169.235 367.306 169.226C370.917 169.233 374.448 170.317 377.465 172.345C377.869 172.62 378.152 173.046 378.251 173.532C378.351 174.017 378.26 174.524 377.998 174.942L367.846 191.191C367.608 191.577 367.278 191.894 366.887 192.114C366.496 192.334 366.057 192.449 365.611 192.448Z" fill="#E6E6E6"/>
<path d="M386.007 138.858C389.216 138.858 391.818 136.2 391.818 132.921C391.818 129.643 389.216 126.984 386.007 126.984C382.798 126.984 380.196 129.643 380.196 132.921C380.196 136.2 382.798 138.858 386.007 138.858Z" fill="#2B2D42"/>
<path d="M366.087 126.396C362.005 126.396 358.09 128.052 355.204 131.001C352.318 133.95 350.696 137.95 350.696 142.12V148.772H358.705L362.535 142.12L363.684 148.772H387.989L381.477 142.12C381.477 137.95 379.856 133.95 376.97 131.001C374.083 128.052 370.169 126.396 366.087 126.396Z" fill="#2B2D42"/>
<path d="M388.994 128.855C389.636 126.802 390.967 125.046 392.751 123.896C394.535 122.746 396.659 122.276 398.749 122.568C402.453 123.2 405.38 126.241 407.125 129.638C408.87 133.035 409.675 136.837 410.848 140.481C412.021 144.125 413.684 147.789 416.645 150.147C419.606 152.506 424.149 153.146 427.057 150.72C426.725 153.248 425.623 155.607 423.907 157.461C422.191 159.315 419.948 160.57 417.495 161.051C415.042 161.531 412.504 161.211 410.239 160.136C407.974 159.062 406.096 157.287 404.873 155.063C403.338 152.273 402.942 149.005 402.487 145.839C402.032 142.674 401.441 139.398 399.609 136.804C397.777 134.209 394.348 132.514 391.438 133.696L388.994 128.855Z" fill="#2B2D42"/>
<path d="M200.045 137.912C194.748 137.911 189.667 135.761 185.922 131.934C182.176 128.106 180.071 122.916 180.071 117.503C180.071 113.812 180.073 110.99 180.079 110.588C180.247 97.9444 183.364 85.5238 189.17 74.3568C179.63 87.6999 174.385 103.742 174.159 120.265C174.154 120.666 174.151 123.488 174.151 127.18C174.152 132.592 176.256 137.783 180.002 141.61C183.748 145.437 188.828 147.588 194.126 147.589C198.479 147.587 202.713 146.133 206.184 143.449C209.655 140.765 212.173 136.997 213.357 132.717C209.699 136.068 204.958 137.918 200.045 137.912Z" fill="#2B2D42"/>
<path d="M253.797 84.13C259.922 84.4288 265.883 86.2418 271.171 89.4132C276.458 92.5847 280.914 97.0199 284.154 102.338C287.394 107.656 289.323 113.698 289.774 119.945C290.225 126.193 289.185 132.458 286.744 138.205C290.275 133.968 292.87 129.003 294.353 123.649C295.836 118.295 296.171 112.677 295.336 107.178C294.501 101.68 292.515 96.4296 289.514 91.7861C286.513 87.1427 282.567 83.215 277.945 80.2707C273.324 77.3265 268.135 75.435 262.733 74.7252C257.331 74.0154 251.843 74.504 246.643 76.1577C241.443 77.8113 236.652 80.5912 232.599 84.3077C228.546 88.0242 225.324 92.59 223.154 97.6938C226.904 93.1866 231.618 89.6196 236.931 87.2679C242.243 84.9162 248.014 83.8426 253.797 84.13Z" fill="#2B2D42"/>
<path d="M259.943 264.915C254.539 264.916 249.351 262.747 245.498 258.875C241.645 255.003 239.437 249.739 239.349 244.218C239.099 228.218 238.969 208.505 238.969 206.252C238.965 200.771 239.738 195.318 241.262 190.063L241.254 190.061C242.154 187.424 243.241 184.857 244.507 182.38C240.623 187.669 237.531 193.519 235.335 199.738L235.342 199.74C233.818 204.995 233.046 210.447 233.049 215.928C233.049 218.181 233.179 237.895 233.43 253.895C233.517 259.415 235.726 264.68 239.578 268.551C243.431 272.423 248.619 274.593 254.023 274.592C258.479 274.591 262.815 273.114 266.38 270.383C269.945 267.651 272.547 263.813 273.795 259.443C270.009 262.97 265.067 264.923 259.943 264.915Z" fill="#2B2D42"/>
<path d="M74.9051 352.334L82.1617 352.333L85.6145 323.734L74.9033 323.735L74.9051 352.334Z" fill="#FFB8B8"/>
<path d="M96.1582 359.217L73.3502 359.218L73.3498 350.215L87.3456 350.215C89.6828 350.214 91.9242 351.163 93.5769 352.851C95.2296 354.54 96.1581 356.83 96.1582 359.217Z" fill="#2B2D42"/>
<path d="M48.8597 352.334L56.1163 352.333L59.5691 323.734L48.8579 323.735L48.8597 352.334Z" fill="#FFB8B8"/>
<path d="M70.1123 359.217L47.3043 359.218L47.3039 350.215L61.2997 350.215C63.6369 350.214 65.8783 351.163 67.531 352.851C69.1837 354.54 70.1122 356.83 70.1123 359.217Z" fill="#2B2D42"/>
<path d="M55.2014 343.538L48.1129 343.157C47.7474 343.137 47.3893 343.044 47.0594 342.882C46.7296 342.72 46.4345 342.492 46.1912 342.213C45.9479 341.934 45.7613 341.608 45.6422 341.254C45.5231 340.901 45.4739 340.526 45.4974 340.153L53.9697 244.317L92.9853 255.073L96.7443 254.025L84.9893 338.866C84.8891 339.504 84.5789 340.089 84.1099 340.522C83.6408 340.956 83.041 341.213 82.4095 341.252L74.7681 341.615C74.386 341.637 74.0037 341.578 73.6453 341.441C73.2869 341.304 72.9602 341.092 72.6858 340.82C72.4115 340.547 72.1955 340.219 72.0514 339.857C71.9074 339.495 71.8384 339.106 71.849 338.715L73.2335 287.795C73.24 287.56 73.1599 287.33 73.0091 287.152C72.8582 286.974 72.6476 286.86 72.4186 286.833C72.1896 286.806 71.9588 286.867 71.7719 287.005C71.5849 287.142 71.4553 287.347 71.4084 287.577L58.056 341.289C57.93 341.926 57.5915 342.499 57.0983 342.91C56.6051 343.321 55.9877 343.544 55.3514 343.542C55.3017 343.542 55.2517 343.541 55.2014 343.538Z" fill="#2B2D42"/>
<path d="M76.2082 165.902C84.2377 165.902 90.7469 159.252 90.7469 151.048C90.7469 142.845 84.2377 136.194 76.2082 136.194C68.1786 136.194 61.6694 142.845 61.6694 151.048C61.6694 159.252 68.1786 165.902 76.2082 165.902Z" fill="#FFB8B8"/>
<path d="M52.002 194.688L53.6006 229.927L54.1785 242.747C54.2015 243.305 54.387 243.844 54.7112 244.294C55.0354 244.743 55.4835 245.084 55.9983 245.272L93.4897 259.148C93.7925 259.263 94.1134 259.321 94.4365 259.318C94.8058 259.32 95.1716 259.245 95.5122 259.099C95.8528 258.954 96.1611 258.739 96.4188 258.469C96.6765 258.199 96.8782 257.878 97.0119 257.526C97.1457 257.175 97.2086 256.799 97.1971 256.422L95.6601 193.061C95.5591 187.863 93.6862 182.863 90.3641 178.925C87.042 174.986 82.4789 172.355 77.4616 171.485C77.0989 171.428 76.73 171.372 76.361 171.321C73.2499 170.927 70.0918 171.233 67.1092 172.22C64.1265 173.206 61.3917 174.849 59.097 177.031C56.721 179.264 54.8539 182.003 53.6279 185.054C52.4019 188.105 51.8469 191.394 52.002 194.688Z" fill="#CCCCCC"/>
<path d="M111.399 252.117C110.512 251.835 109.702 251.346 109.033 250.689C108.364 250.031 107.855 249.222 107.547 248.328C107.238 247.433 107.138 246.477 107.255 245.536C107.372 244.595 107.703 243.695 108.221 242.908L95.5073 225.636L106.479 224.942L116.87 241.45C117.982 242.329 118.756 243.58 119.056 244.983C119.356 246.387 119.163 247.854 118.51 249.126C117.858 250.399 116.787 251.396 115.487 251.943C114.187 252.489 112.739 252.551 111.399 252.117Z" fill="#FFB8B8"/>
<path d="M102.46 239.782C102.123 239.643 101.817 239.436 101.559 239.175C101.301 238.913 101.096 238.602 100.956 238.259L81.8017 191.634C81.4259 190.721 81.2298 189.742 81.2247 188.752C81.2196 187.761 81.4056 186.78 81.7719 185.863C82.1383 184.946 82.678 184.112 83.3601 183.408C84.0421 182.704 84.8532 182.145 85.747 181.762C86.6408 181.378 87.5998 181.179 88.5691 181.174C89.5384 181.17 90.4991 181.361 91.3962 181.736C92.2933 182.111 93.1093 182.663 93.7975 183.36C94.4858 184.057 95.0327 184.887 95.4072 185.8L114.561 232.425C114.845 233.117 114.848 233.895 114.57 234.588C114.293 235.282 113.757 235.835 113.081 236.126L104.578 239.772C104.243 239.917 103.883 239.992 103.52 239.994C103.156 239.996 102.796 239.924 102.46 239.782Z" fill="#CCCCCC"/>
<path d="M71.5336 238.138L89.9307 202.148C90.2855 201.456 90.8945 200.936 91.6242 200.702C92.3538 200.468 93.1445 200.539 93.8227 200.9L120.526 215.149C121.204 215.511 121.713 216.134 121.942 216.879C122.171 217.624 122.101 218.432 121.748 219.125L103.35 255.115C102.996 255.807 102.387 256.327 101.657 256.561C100.927 256.795 100.137 256.724 99.4585 256.363L72.755 242.114C72.0776 241.752 71.5685 241.129 71.3395 240.384C71.1105 239.639 71.1803 238.831 71.5336 238.138Z" fill="#2B2D42"/>
<path d="M83.8716 221.695C83.5445 220.807 83.0189 220.01 82.3366 219.366C81.6544 218.723 80.8344 218.252 79.942 217.989C79.0497 217.727 78.1098 217.682 77.1973 217.857C76.2848 218.032 75.425 218.423 74.6864 218.997L57.0593 207.051L57.0293 218.281L73.7729 227.904C74.6972 228.987 75.9651 229.703 77.3542 229.926C78.7433 230.149 80.1649 229.865 81.3697 229.124C82.5745 228.383 83.4855 227.233 83.943 225.874C84.4005 224.516 84.3752 223.036 83.8716 221.695Z" fill="#FFB8B8"/>
<path d="M61.5846 224.221L47.1787 212.562C45.6202 212.027 44.212 211.114 43.075 209.901C41.9379 208.688 41.106 207.211 40.6506 205.597C40.1951 203.983 40.1298 202.281 40.4603 200.635C40.7907 198.99 41.507 197.451 42.5476 196.151L55.6279 178.637C56.5368 177.502 57.8152 176.739 59.2293 176.488C60.6433 176.237 62.0986 176.514 63.3291 177.269C64.5596 178.024 65.4832 179.206 65.9309 180.599C66.3787 181.992 66.3207 183.504 65.7676 184.857L55.4182 202.153L70.6276 209.524C70.9813 209.695 71.2953 209.941 71.549 210.246C71.8027 210.55 71.9902 210.906 72.0992 211.291C72.2082 211.675 72.2362 212.078 72.1813 212.474C72.1264 212.87 71.9899 213.249 71.7808 213.588L65.6413 223.514C65.4338 223.849 65.1596 224.136 64.8367 224.356C64.5138 224.576 64.1493 224.724 63.7668 224.791C63.7516 224.794 63.7363 224.796 63.721 224.799C63.3452 224.857 62.9616 224.835 62.5942 224.736C62.2267 224.636 61.8831 224.461 61.5846 224.221Z" fill="#CCCCCC"/>
<path d="M65.2221 160.995C65.1597 160.808 65.1399 160.61 65.1642 160.414C65.1885 160.219 65.2563 160.031 65.3624 159.867C65.4685 159.702 65.61 159.565 65.7761 159.465C65.9423 159.365 66.1286 159.305 66.3209 159.29C66.7147 159.312 67.1 159.415 67.4537 159.593C67.8073 159.771 68.122 160.021 68.3786 160.327C68.9047 160.947 69.5173 161.484 70.1965 161.922C70.8998 162.284 71.8537 162.232 72.2546 161.542C72.6311 160.893 72.3731 160.025 72.1452 159.272C71.5652 157.355 71.2407 155.368 71.1804 153.363C71.1147 151.125 71.4238 148.79 72.6364 147.044C74.2014 144.792 76.9999 143.936 79.6482 143.998C82.2966 144.06 84.902 144.896 87.5253 145.424C88.4309 145.606 89.4954 145.699 90.1012 144.982C90.7452 144.22 90.5087 142.985 90.2347 141.956C89.5238 139.284 88.7697 136.522 87.118 134.365C85.3321 132.123 82.7811 130.655 79.9787 130.258C77.2882 129.918 74.557 130.234 72.0097 131.182C67.8595 132.519 64.2076 135.118 61.5425 138.632C58.7951 142.37 57.6079 147.067 58.2406 151.696C58.8586 155.728 60.9497 159.37 64.0924 161.889L65.2221 160.995Z" fill="#2B2D42"/>
<path d="M249.361 352.451C245.493 350.73 242.069 348.114 239.36 344.809C236.651 341.505 234.731 337.602 233.751 333.41C232.771 329.217 232.759 324.849 233.714 320.651C234.669 316.452 236.567 312.538 239.256 309.217C236.138 311.543 233.54 314.52 231.633 317.951C229.727 321.382 228.557 325.187 228.201 329.115C227.844 333.043 228.31 337.004 229.566 340.734C230.822 344.464 232.84 347.879 235.487 350.751C238.134 353.624 241.348 355.888 244.917 357.394C248.485 358.9 252.327 359.614 256.186 359.487C260.045 359.361 263.834 358.397 267.301 356.66C270.767 354.923 273.833 352.452 276.294 349.413C272.456 352.279 267.949 354.067 263.224 354.601C258.499 355.134 253.719 354.393 249.361 352.451Z" fill="#2B2D42"/>
</g>
<defs>
<clipPath id="clip0_26_278">
<rect width="500" height="360" fill="white"/>
</clipPath>
</defs>
</svg>
