<svg width="669" height="660" viewBox="0 0 669 660" fill="none" xmlns="http://www.w3.org/2000/svg">
<g clip-path="url(#clip0_24_61)">
<path d="M633.991 615.008C633.991 639.855 492.069 660 316.995 660C141.922 660 0 639.855 0 615.008C0 597.417 71.1399 582.177 174.818 574.785C217.571 571.728 265.877 570.015 316.995 570.015C338.009 570.015 358.542 570.305 378.4 570.857C524.085 574.921 633.991 593.14 633.991 615.008Z" fill="#3F3D56"/>
<path opacity="0.1" d="M276.093 624.199C343.298 624.199 397.778 617.918 397.778 610.17C397.778 602.421 343.298 596.14 276.093 596.14C208.888 596.14 154.407 602.421 154.407 610.17C154.407 617.918 208.888 624.199 276.093 624.199Z" fill="black"/>
<path d="M275.582 620.329C339.116 620.329 390.62 568.345 390.62 504.219C390.62 440.094 339.116 388.11 275.582 388.11C212.047 388.11 160.543 440.094 160.543 504.219C160.543 568.345 212.047 620.329 275.582 620.329Z" fill="#3F3D56"/>
<path d="M311.883 572.918H240.303V634.843H311.883V572.918Z" fill="#D90429"/>
<path d="M405.447 587.916L401.357 609.203L427.944 613.073L445.327 603.397L444.305 587.916H405.447Z" fill="#8D99AE"/>
<path d="M271.491 188.304C271.491 188.304 269.446 210.559 264.333 211.526C259.22 212.494 275.582 251.197 275.582 251.197H300.123L319.552 246.359L310.349 225.072C310.349 225.072 298.078 209.591 307.281 197.013C316.484 184.434 271.491 188.304 271.491 188.304Z" fill="#A0616A"/>
<path opacity="0.1" d="M271.491 188.304C271.491 188.304 269.446 210.559 264.333 211.526C259.22 212.494 275.582 251.197 275.582 251.197H300.123L319.552 246.359L310.349 225.072C310.349 225.072 298.078 209.591 307.281 197.013C316.484 184.434 271.491 188.304 271.491 188.304Z" fill="black"/>
<path d="M220.363 358.599C220.363 358.599 193.776 406.978 215.25 416.653C236.724 426.329 241.837 425.362 241.837 428.264C241.837 431.167 237.747 430.2 239.792 435.037C241.837 439.875 235.701 459.227 241.837 470.838C247.972 482.449 245.927 491.157 245.927 491.157C245.927 491.157 245.927 492.125 247.972 495.995C250.017 499.865 251.04 502.768 250.017 504.703C248.995 506.638 242.859 519.217 248.995 522.12C255.13 525.023 286.83 526.958 289.897 522.12C292.965 517.282 286.83 514.379 289.897 511.476C292.965 508.574 295.01 507.606 292.965 505.671C290.92 503.736 288.875 479.546 288.875 479.546C288.875 479.546 293.988 451.486 291.943 447.616C289.897 443.746 286.83 439.875 288.875 436.973C290.92 434.07 292.965 435.037 293.988 431.167C295.01 427.297 297.055 418.589 297.055 418.589L308.304 417.621L334.89 422.459C334.89 422.459 364.545 453.422 397.267 463.097C397.267 463.097 406.47 471.806 409.538 471.806C412.605 471.806 412.605 471.806 411.583 473.741C410.56 475.676 407.493 475.676 409.538 477.611C411.583 479.546 414.65 476.643 412.605 479.546C410.56 482.449 408.515 482.449 410.56 484.384C412.605 486.319 409.538 496.963 409.538 497.93C409.538 498.898 400.335 589.85 403.402 591.786C406.47 593.721 449.418 599.526 452.485 591.786C455.553 584.045 450.44 574.369 450.44 574.369C450.44 574.369 465.779 458.259 461.689 450.519C457.598 442.778 443.282 407.945 366.59 385.691C366.59 385.691 345.116 381.821 345.116 378.918C345.116 376.015 343.071 357.631 338.981 356.663C334.89 355.696 311.371 354.728 311.371 354.728L281.717 363.436L240.814 356.663L220.363 358.599Z" fill="#2B2D42"/>
<path d="M256.153 521.152L251.04 538.569C251.04 538.569 246.95 566.628 252.063 573.401C256.079 578.722 263.249 585.236 276.547 586.379C280.274 586.702 284.006 585.813 287.126 583.856C290.246 581.9 292.567 578.995 293.704 575.622C293.857 575.218 293.952 574.797 293.988 574.369C293.988 572.434 290.92 549.212 290.92 549.212L285.807 525.022L284.785 518.249L256.153 521.152Z" fill="#2B2D42"/>
<path d="M405.447 604.364C405.447 604.364 400.335 599.526 399.312 604.364C398.289 609.202 394.199 629.521 401.357 630.489C408.515 631.456 477.027 641.132 484.185 637.262C491.343 633.392 504.636 627.586 496.456 624.683C488.275 621.781 464.756 613.072 464.756 613.072C464.756 613.072 451.463 596.623 449.418 595.656C447.373 594.688 436.124 596.623 431.012 600.494C425.899 604.364 405.447 604.364 405.447 604.364Z" fill="#2B2D42"/>
<path d="M296.033 208.624C313.54 208.624 327.732 195.194 327.732 178.629C327.732 162.063 313.54 148.634 296.033 148.634C278.526 148.634 264.333 162.063 264.333 178.629C264.333 195.194 278.526 208.624 296.033 208.624Z" fill="#A0616A"/>
<path d="M292.965 246.359L280.694 233.781L267.093 208.624C267.093 208.624 257.175 205.721 255.13 210.559C253.085 215.397 216.273 230.878 216.273 230.878C216.273 230.878 225.476 312.155 221.386 319.895C217.295 327.636 210.137 358.599 216.273 361.501C222.408 364.404 251.04 361.501 260.243 365.372C269.446 369.242 296.033 369.242 303.191 364.404C310.349 359.566 312.394 355.696 319.552 358.599C325.646 361.07 339.891 276.585 343.993 251.409C344.338 249.294 344.051 247.131 343.164 245.162C342.277 243.194 340.826 241.5 338.974 240.272C329.799 234.183 313.274 223.688 310.349 225.072C306.258 227.008 292.965 246.359 292.965 246.359Z" fill="#8D99AE"/>
<path d="M336.935 242.489C339.337 243.057 341.497 244.307 343.126 246.07C344.754 247.833 345.774 250.026 346.047 252.354L354.319 322.798C354.319 322.798 333.868 364.404 323.642 336.344C313.416 308.284 336.935 242.489 336.935 242.489Z" fill="#8D99AE"/>
<path d="M334.89 329.571L357.387 323.766C357.387 323.766 361.477 350.858 365.567 350.858C369.658 350.858 351.251 366.339 342.048 364.404C332.845 362.469 319.552 355.696 318.529 350.858C317.507 346.02 327.732 325.701 327.732 325.701L334.89 329.571Z" fill="#8D99AE"/>
<path d="M272.103 191.568C274.258 187.071 273.884 181.825 275.666 177.183C276.62 174.698 278.169 172.455 280.191 170.63C282.213 168.805 284.653 167.446 287.322 166.661C289.99 165.876 292.814 165.686 295.574 166.104C298.333 166.523 300.952 167.539 303.228 169.074C305.52 170.621 307.818 172.794 310.616 172.499C313.629 172.181 316.317 169 319.087 170.166C322.158 171.458 321.329 176.665 324.439 177.867C326.077 178.5 328.012 177.526 328.956 176.11C329.782 174.623 330.232 172.975 330.271 171.296C330.7 167.169 331.088 162.801 329.197 159.061C328.401 157.793 327.708 156.47 327.123 155.103C326.792 153.827 326.659 152.512 326.728 151.2C326.711 146.349 326.337 141.29 323.757 137.098C320.894 132.447 315.603 129.472 310.082 128.175C304.561 126.877 298.778 127.076 293.11 127.53C283.74 128.281 273.968 129.889 266.586 135.401C265.582 136.095 264.719 136.953 264.036 137.936C263.388 139.103 262.93 140.356 262.678 141.653C261.082 147.803 258.689 153.743 255.553 159.337C254.045 161.709 252.812 164.228 251.876 166.851C251.094 169.516 251.146 172.553 252.785 174.844C254.119 176.709 256.252 177.703 257.928 179.228C259.589 180.738 260.366 183.644 262.205 184.788C263.811 185.787 265.734 185.082 267.372 186.14C269.475 187.499 269.627 190.479 272.103 191.568Z" fill="#2B2D42"/>
<path d="M298.078 260.873L301.146 255.067C301.146 255.067 346.139 267.646 355.342 279.257C355.342 279.257 377.838 265.711 390.109 267.646L402.38 269.581L364.545 301.511L316.484 297.641L298.078 260.873Z" fill="#8D99AE"/>
<path d="M296.033 255.067L254.108 310.219L314.439 338.279C314.439 338.279 320.079 341.182 324.417 338.279L364.545 320.863L402.38 269.581L364.545 287.965C364.545 287.965 360.454 280.224 352.274 284.095L296.033 255.067Z" fill="#D90429"/>
<path d="M360.454 352.793L368.635 332.474C368.635 332.474 387.041 310.22 376.816 299.576C366.59 288.933 355.342 330.539 355.342 330.539L360.454 352.793Z" fill="#A0616A"/>
<path d="M266.069 349.55L283.919 335.857C283.919 335.857 311.641 325.344 308.439 311.283C305.237 297.222 273.446 327.872 273.446 327.872L266.069 349.55Z" fill="#A0616A"/>
<path opacity="0.1" d="M221.897 251.681H220.874C220.874 251.681 205.024 233.781 201.957 257.97C198.889 282.16 188.663 362.469 215.25 365.372C241.837 368.274 260.754 353.277 260.754 353.277C260.754 353.277 280.183 325.217 273.025 325.217C269.562 325.217 260.142 323.745 251.551 324.249C242.386 324.787 234.151 327.23 234.679 324.733C235.701 319.895 250.529 258.454 221.897 251.681Z" fill="black"/>
<path d="M220.363 232.813L216.273 230.878C216.273 230.878 199.912 233.781 196.844 257.97C193.776 282.16 183.551 362.469 210.137 365.372C236.724 368.274 272.514 361.501 272.514 361.501C272.514 361.501 279.672 324.733 272.514 324.733C265.356 324.733 228.543 329.571 229.566 324.733C230.589 319.895 248.995 239.586 220.363 232.813Z" fill="#8D99AE"/>
<path d="M345.627 341.666L356.903 325.313L364.033 352.31L345.627 360.05V341.666Z" fill="#8D99AE"/>
<path d="M113.989 108.479C129.237 108.479 141.598 96.7825 141.598 82.3542C141.598 67.926 129.237 56.2296 113.989 56.2296C98.7404 56.2296 86.3793 67.926 86.3793 82.3542C86.3793 96.7825 98.7404 108.479 113.989 108.479Z" fill="#8D99AE"/>
<path d="M146.711 276.838H81.2665V338.763H146.711V276.838Z" fill="#8D99AE"/>
<path d="M380.395 0L396.959 27.1474L413.523 54.2948H380.395H347.266L363.83 27.1474L380.395 0Z" fill="#8D99AE"/>
<path d="M669 162.775C668.604 174.357 665.623 183.641 660.058 190.626C654.491 197.611 647.878 201.104 640.218 201.105C633.979 201.105 628.511 197.686 623.814 190.85C619.115 184.013 616.766 173.497 616.766 159.301C616.766 156.163 616.845 153.174 617.003 150.335C617.161 147.496 617.358 144.806 617.596 142.266L621.741 105.393H594.38C589.643 152.016 585.754 179.754 582.714 188.608C579.673 197.462 574.521 201.889 567.257 201.889C563.978 201.813 560.849 200.573 558.492 198.415C557.125 197.269 556.044 195.85 555.327 194.261C554.611 192.672 554.276 190.951 554.346 189.225C554.346 185.789 557.209 180.989 562.934 174.823C568.658 168.659 571.836 163.037 572.468 157.956L579.575 105.393H568.086C564.847 105.411 561.66 106.16 558.788 107.578C556.145 108.727 553.846 110.479 552.096 112.678L547.003 119.85H542.857C546.726 108.494 551.483 99.9578 557.13 94.2415C562.775 88.5256 569.269 85.6677 576.614 85.6677H667.105V105.393H636.547C635.599 114.359 634.868 123.325 634.355 132.291C633.841 141.257 633.584 150.26 633.586 159.301C633.586 165.428 635.086 170.397 638.086 174.207C641.086 178.017 644.837 179.923 649.339 179.923C652.102 179.923 655.004 178.858 658.044 176.728C659.488 175.77 660.696 174.528 661.585 173.087C662.474 171.646 663.024 170.04 663.196 168.379C663.433 166.736 663.611 165.447 663.729 164.512C663.848 163.579 663.907 163 663.907 162.775L669 162.775Z" fill="#D90429"/>
<path opacity="0.1" d="M669 162.775C668.604 174.357 665.623 183.641 660.058 190.626C654.491 197.611 647.878 201.104 640.218 201.105C633.979 201.105 628.511 197.686 623.814 190.85C619.115 184.013 616.766 173.497 616.766 159.301C616.766 156.163 616.845 153.174 617.003 150.335C617.161 147.496 617.358 144.806 617.596 142.266L621.741 105.393H594.38C589.643 152.016 585.754 179.754 582.714 188.608C579.673 197.462 574.521 201.889 567.257 201.889C563.978 201.813 560.849 200.573 558.492 198.415C557.125 197.269 556.044 195.85 555.327 194.261C554.611 192.672 554.276 190.951 554.346 189.225C554.346 185.789 557.209 180.989 562.934 174.823C568.658 168.659 571.836 163.037 572.468 157.956L579.575 105.393H568.086C564.847 105.411 561.66 106.16 558.788 107.578C556.145 108.727 553.846 110.479 552.096 112.678L547.003 119.85H542.857C546.726 108.494 551.483 99.9578 557.13 94.2415C562.775 88.5256 569.269 85.6677 576.614 85.6677H667.105V105.393H636.547C635.599 114.359 634.868 123.325 634.355 132.291C633.841 141.257 633.584 150.26 633.586 159.301C633.586 165.428 635.086 170.397 638.086 174.207C641.086 178.017 644.837 179.923 649.339 179.923C652.102 179.923 655.004 178.858 658.044 176.728C659.488 175.77 660.696 174.528 661.585 173.087C662.474 171.646 663.024 170.04 663.196 168.379C663.433 166.736 663.611 165.447 663.729 164.512C663.848 163.579 663.907 163 663.907 162.775L669 162.775Z" fill="black"/>
<path d="M669 159.273C668.604 170.856 665.623 180.139 660.058 187.124C654.491 194.109 647.878 197.602 640.218 197.603C633.979 197.603 628.511 194.185 623.814 187.348C619.115 180.512 616.766 169.995 616.766 155.799C616.766 152.661 616.845 149.672 617.003 146.833C617.161 143.995 617.358 141.305 617.596 138.764L621.741 101.891H594.38C589.643 148.514 585.754 176.253 582.714 185.107C579.673 193.96 574.521 198.387 567.257 198.388C563.978 198.311 560.849 197.071 558.492 194.913C557.125 193.767 556.044 192.348 555.327 190.759C554.611 189.17 554.276 187.45 554.346 185.723C554.346 182.287 557.209 177.487 562.934 171.322C568.658 165.157 571.836 159.535 572.468 154.454L579.575 101.891H568.086C564.847 101.91 561.66 102.659 558.788 104.077C556.145 105.225 553.846 106.978 552.096 109.176L547.003 116.349H542.857C546.726 104.992 551.483 96.4561 557.13 90.7397C562.775 85.0239 569.269 82.166 576.614 82.166H667.105V101.891H636.547C635.599 110.857 634.868 119.823 634.355 128.789C633.841 137.755 633.584 146.758 633.586 155.799C633.586 161.927 635.086 166.895 638.086 170.705C641.086 174.516 644.837 176.421 649.339 176.421C652.102 176.421 655.004 175.356 658.044 173.227C659.488 172.268 660.696 171.026 661.585 169.585C662.474 168.144 663.024 166.538 663.196 164.877C663.433 163.235 663.611 161.946 663.729 161.011C663.848 160.077 663.907 159.498 663.907 159.273H669Z" fill="#D90429"/>
</g>
<defs>
<clipPath id="clip0_24_61">
<rect width="669" height="660" fill="white"/>
</clipPath>
</defs>
</svg>
