<svg width="627" height="540" viewBox="0 0 627 540" fill="none" xmlns="http://www.w3.org/2000/svg">
<g clip-path="url(#clip0_24_20)">
<path d="M509.283 183.242C509.281 175.074 506.985 167.066 502.649 160.108C498.313 153.15 492.107 147.513 484.721 143.824C477.334 140.135 469.056 138.538 460.804 139.21C452.553 139.883 444.653 142.798 437.979 147.632C431.306 152.466 426.121 159.031 423.001 166.596C419.881 174.162 418.947 182.433 420.303 190.49C421.659 198.548 425.252 206.077 430.684 212.242C436.115 218.407 443.172 222.966 451.071 225.413L457.752 230.722L445.76 272.121L459.731 281.871L503.874 245.579C503.874 245.579 494.338 233.594 489.224 220.084C495.394 216.057 500.456 210.585 503.956 204.156C507.457 197.726 509.288 190.541 509.284 183.243L509.283 183.242Z" fill="#ED9DA0"/>
<path d="M309.174 296.466L341.267 406.49L373.722 384.268L335.474 288.274C338.809 282.18 339.638 274.17 337.105 266.253C332.672 252.399 319.659 244.103 308.037 247.722C296.416 251.342 290.589 265.506 295.021 279.359C297.554 287.276 302.895 293.365 309.172 296.465L309.174 296.466Z" fill="#ED9DA0"/>
<path d="M532.042 339.909H416.278V472.929H532.042V339.909Z" fill="#A3142C"/>
<path d="M335.52 540.001H605.061C605.468 539.941 605.839 539.74 606.108 539.433C606.376 539.126 606.524 538.734 606.524 538.329C606.524 537.923 606.376 537.531 606.108 537.224C605.839 536.917 605.468 536.716 605.061 536.656H335.52C335.109 536.71 334.731 536.909 334.457 537.216C334.184 537.524 334.033 537.919 334.033 538.329C334.033 538.738 334.184 539.133 334.457 539.441C334.731 539.749 335.109 539.948 335.52 540.001Z" fill="#CCCCCC"/>
<path d="M539.15 422.991L565.406 501.706L566.973 539.344H372.824L410.268 422.988L539.15 422.991Z" fill="#2B2D42"/>
<path d="M493.183 233.839L520.702 295.839L517.98 402.397H424.971L422.051 289.332L456.582 236.823L493.183 233.839Z" fill="#A3142C"/>
<path d="M548.472 258.51C548.472 258.51 556.528 486.507 578.161 524.132C578.161 524.132 548.265 529.271 540.662 518.642C533.059 508.012 503.732 437.24 503.412 421.568C503.092 405.895 493.909 233.762 493.909 233.762L548.472 258.51Z" fill="#D6D6E3"/>
<path d="M459.012 243.088L456.583 236.825L394.901 260.991C394.901 260.991 397.779 488.839 372.808 511.862C372.808 511.862 414.524 509.899 415.91 508.956C417.296 508.014 447.581 390.193 447.581 390.193C447.581 390.193 433.144 335.612 432.03 312.306C430.915 289 459.012 243.09 459.012 243.09V243.088Z" fill="#D6D6E3"/>
<path d="M410.552 265.442L394.901 260.988L358.914 332.89L343.491 293.507L305.387 304.248C305.387 304.248 322.708 415.135 348.89 409.171C375.072 403.207 410.551 342.311 410.551 342.311V265.442H410.552Z" fill="#D6D6E3"/>
<path d="M564.83 485.015L617.353 409.689L593.207 388.734L543.853 470.715C537.452 471.768 531.054 475.713 526.631 482.028C518.892 493.076 520.132 507.158 529.4 513.474C538.668 519.791 552.456 515.958 560.192 504.912C564.615 498.597 566.093 491.297 564.828 485.018L564.83 485.015Z" fill="#ED9DA0"/>
<path d="M539.15 264.867L548.472 258.51L624.732 400.616C624.732 400.616 630.923 409.185 622.851 422.991C614.778 436.798 573.322 479.08 573.322 479.08L540.662 460.881L573.927 399.719L542.571 346.211L539.15 264.867Z" fill="#D6D6E3"/>
<path d="M420.467 179.41C423.459 164.971 424.894 157.574 435.768 147.36C438.349 147.72 435.087 160.924 449.313 179.316C469.994 206.052 467.933 181.538 474.048 189.774C475.376 191.561 475.662 198.012 475.224 200.232C473.499 209.001 463.297 200.438 474.048 230.444C475.647 232.778 477.533 232.21 479.937 232.187C480.124 232.187 478.903 231.955 483.471 231.027C485.651 230.583 488.702 230.058 492.36 229.451C534.854 222.387 549.855 169.492 517.011 141.972C509.539 135.709 502.205 130.966 495.838 128.767C476.661 122.144 432.965 126.453 424.579 147.94C420.627 157.943 419.216 168.746 420.467 179.41Z" fill="#2B2D42" stroke="#2B2D42" stroke-width="2"/>
<path d="M507.984 264.317C524.722 264.317 538.29 250.931 538.29 234.419C538.29 217.906 524.722 204.52 507.984 204.52C491.247 204.52 477.679 217.906 477.679 234.419C477.679 250.931 491.247 264.317 507.984 264.317Z" fill="#2B2D42" stroke="#2B2D42" stroke-width="2"/>
<path d="M64.1671 89.9071C62.7356 89.9069 61.3631 89.3456 60.3508 88.347C59.3386 87.3484 58.7697 85.9936 58.7695 84.5813V83.2477C58.7697 81.8355 59.3386 80.4814 60.3508 79.4828C61.3631 78.4841 62.7356 77.9229 64.1671 77.9227H104.656C105.365 77.9224 106.068 78.06 106.723 78.3274C107.378 78.5949 107.974 78.9867 108.476 79.4813C108.977 79.9758 109.374 80.5627 109.645 81.209C109.917 81.8552 110.057 82.5482 110.057 83.2477V84.5813C110.057 85.2808 109.917 85.9738 109.645 86.6201C109.374 87.2663 108.977 87.8532 108.476 88.3478C107.974 88.8423 107.378 89.2348 106.723 89.5023C106.068 89.7698 105.365 89.9074 104.656 89.9071H64.1671ZM83.7381 72.5969C82.3065 72.5967 80.9341 72.0357 79.9219 71.0369C78.9096 70.0381 78.3406 68.6835 78.3406 67.2711V53.2895H64.1671C62.7354 53.2893 61.3631 52.7283 60.3508 51.7295C59.3386 50.7307 58.7695 49.3761 58.7695 47.9637V46.6347C58.7692 45.9353 58.9086 45.2422 59.1798 44.5959C59.4509 43.9497 59.848 43.3629 60.3493 42.8683C60.8506 42.3736 61.4455 41.9813 62.1005 41.7137C62.7555 41.4461 63.4581 41.308 64.1671 41.3082H78.3406V27.3258C78.3408 25.9135 78.9096 24.5595 79.9219 23.5609C80.9341 22.5622 82.3066 22.001 83.7381 22.0008H85.0898C86.5213 22.001 87.8953 22.5622 88.9075 23.5609C89.9198 24.5595 90.4886 25.9135 90.4888 27.3258V41.3082H104.658C105.367 41.3077 106.069 41.4455 106.724 41.7129C107.38 41.9804 107.975 42.3721 108.477 42.8667C108.979 43.3614 109.375 43.9488 109.647 44.5952C109.918 45.2416 110.059 45.9351 110.058 46.6347V47.9637C110.058 48.6633 109.918 49.3562 109.647 50.0025C109.375 50.6488 108.977 51.2356 108.476 51.7302C107.974 52.2248 107.38 52.6172 106.724 52.8848C106.069 53.1523 105.367 53.2897 104.658 53.2895H90.4888V67.2711C90.4888 68.6835 89.9198 70.0381 88.9075 71.0369C87.8953 72.0357 86.5214 72.5967 85.0898 72.5969H83.7381Z" fill="#2B2D42"/>
<path d="M286.594 162.584C285.842 162.584 285.104 162.377 284.465 161.987C283.825 161.597 283.308 161.039 282.972 160.375L272.874 140.446H267.897C266.823 140.446 265.793 140.025 265.034 139.276C264.275 138.527 263.848 137.511 263.848 136.452C263.848 135.392 264.275 134.376 265.034 133.627C265.793 132.878 266.823 132.457 267.897 132.457H275.376C276.128 132.457 276.866 132.664 277.505 133.054C278.145 133.444 278.662 134.002 278.998 134.665L285.558 147.618L297.66 105.842C297.901 105.007 298.412 104.273 299.114 103.75C299.817 103.227 300.673 102.944 301.552 102.944H327.73C328.804 102.944 329.834 103.365 330.593 104.114C331.352 104.863 331.779 105.879 331.779 106.939C331.779 107.998 331.352 109.014 330.593 109.763C329.834 110.512 328.804 110.933 327.73 110.933H304.604L290.487 159.686C290.263 160.46 289.807 161.149 289.18 161.663C288.552 162.177 287.781 162.491 286.969 162.566C286.844 162.578 286.718 162.584 286.594 162.584Z" fill="#2B2D42"/>
<path d="M332.935 161.058C332.58 161.059 332.229 160.99 331.902 160.856C331.574 160.722 331.277 160.526 331.026 160.278L309.429 138.975C308.923 138.475 308.639 137.798 308.639 137.092C308.639 136.386 308.923 135.708 309.429 135.209C309.935 134.71 310.622 134.429 311.338 134.429C312.053 134.429 312.74 134.71 313.246 135.209L334.84 156.512C335.217 156.885 335.474 157.359 335.579 157.875C335.683 158.391 335.63 158.926 335.426 159.413C335.222 159.899 334.876 160.315 334.433 160.608C333.99 160.901 333.468 161.057 332.935 161.058Z" fill="#2B2D42"/>
<path d="M311.338 161.058C310.983 161.059 310.632 160.99 310.304 160.856C309.977 160.722 309.679 160.526 309.429 160.278C308.923 159.779 308.639 159.101 308.639 158.395C308.639 157.689 308.923 157.012 309.429 156.512L331.022 135.209C331.529 134.71 332.215 134.429 332.931 134.429C333.647 134.429 334.333 134.71 334.839 135.209C335.345 135.708 335.63 136.386 335.63 137.092C335.63 137.798 335.345 138.475 334.839 138.975L313.246 160.279C312.996 160.526 312.698 160.723 312.371 160.856C312.043 160.99 311.692 161.059 311.338 161.058Z" fill="#2B2D42"/>
<path d="M194.198 199.651C193.489 199.651 192.786 199.513 192.131 199.246C191.476 198.978 190.881 198.586 190.38 198.092C189.879 197.597 189.48 197.01 189.209 196.363C188.938 195.717 188.799 195.024 188.799 194.325V165.701H178.001V194.327C178.001 195.739 177.431 197.094 176.419 198.093C175.407 199.091 174.035 199.652 172.603 199.653H171.254C170.545 199.653 169.843 199.515 169.188 199.248C168.533 198.98 167.937 198.588 167.435 198.093C166.934 197.599 166.535 197.011 166.264 196.365C165.993 195.719 165.852 195.026 165.852 194.327V165.701H163.153C161.722 165.7 160.348 165.139 159.336 164.141C158.323 163.142 157.755 161.788 157.754 160.376V159.041C157.755 157.629 158.323 156.275 159.336 155.276C160.348 154.278 161.722 153.717 163.153 153.716H203.643C204.352 153.716 205.052 153.854 205.708 154.121C206.363 154.389 206.959 154.78 207.46 155.275C207.962 155.769 208.36 156.357 208.631 157.003C208.903 157.65 209.043 158.342 209.043 159.041V160.376C209.043 161.075 208.903 161.767 208.631 162.414C208.36 163.06 207.962 163.648 207.46 164.142C206.959 164.637 206.363 165.028 205.708 165.296C205.052 165.563 204.352 165.701 203.643 165.701H200.944V194.327C200.944 195.026 200.803 195.719 200.532 196.365C200.261 197.011 199.864 197.598 199.363 198.093C198.861 198.587 198.265 198.98 197.61 199.247C196.955 199.515 196.254 199.653 195.545 199.653L194.198 199.651Z" fill="#2B2D42"/>
<path d="M36.4448 207.226C56.5728 207.226 72.8897 191.129 72.8897 171.271C72.8897 151.413 56.5728 135.316 36.4448 135.316C16.3169 135.316 0 151.413 0 171.271C0 191.129 16.3169 207.226 36.4448 207.226Z" fill="#A3142C"/>
<path d="M30.9929 170.747C30.819 170.748 30.6467 170.714 30.4859 170.648C30.3252 170.583 30.1792 170.486 30.0563 170.365L19.4607 159.911C19.2123 159.666 19.0728 159.333 19.0728 158.987C19.0728 158.64 19.2123 158.308 19.4607 158.063C19.7091 157.818 20.046 157.68 20.3973 157.68C20.7486 157.68 21.0855 157.818 21.3339 158.063L31.9264 168.516C32.1117 168.698 32.238 168.931 32.2894 169.184C32.3408 169.438 32.3149 169.7 32.215 169.939C32.1151 170.178 31.9457 170.382 31.7282 170.526C31.5107 170.67 31.2548 170.747 30.9929 170.747Z" fill="white"/>
<path d="M20.3973 170.747C20.223 170.747 20.0506 170.713 19.8898 170.647C19.7291 170.58 19.5832 170.483 19.4607 170.361C19.2123 170.116 19.0728 169.783 19.0728 169.437C19.0728 169.09 19.2123 168.758 19.4607 168.513L30.0563 158.063C30.3047 157.818 30.6417 157.68 30.9929 157.68C31.3442 157.68 31.6811 157.818 31.9295 158.063C32.1779 158.308 32.3175 158.64 32.3175 158.987C32.3175 159.333 32.1779 159.666 31.9295 159.911L21.3339 170.361C21.2113 170.483 21.0655 170.58 20.9048 170.647C20.744 170.713 20.5715 170.747 20.3973 170.747Z" fill="white"/>
<path d="M44.8994 173.359L48.4475 179.099L44.8994 173.359Z" fill="white"/>
<path d="M48.4489 180.405C48.2217 180.405 47.9982 180.347 47.7999 180.238C47.6017 180.128 47.4355 179.97 47.3172 179.778L43.7691 174.04C43.5864 173.744 43.5302 173.389 43.613 173.052C43.6957 172.716 43.9106 172.425 44.2104 172.245C44.5102 172.064 44.8704 172.009 45.2117 172.091C45.5529 172.172 45.8474 172.384 46.0303 172.68L49.5783 178.419C49.7003 178.617 49.7668 178.843 49.7709 179.075C49.775 179.307 49.7166 179.535 49.6017 179.737C49.4868 179.939 49.3194 180.108 49.1169 180.225C48.9143 180.342 48.6838 180.404 48.4489 180.405Z" fill="white"/>
<path d="M52.4812 173.359L47.0732 184.216L52.4812 173.359Z" fill="white"/>
<path d="M47.0695 185.524C46.8447 185.524 46.6236 185.467 46.4271 185.359C46.2306 185.251 46.0652 185.095 45.9465 184.907C45.8277 184.719 45.7595 184.503 45.7482 184.282C45.737 184.06 45.7831 183.84 45.8821 183.64L51.2901 172.783C51.4451 172.472 51.7189 172.235 52.0514 172.123C52.3838 172.011 52.7477 172.034 53.0629 172.187C53.3782 172.34 53.6189 172.61 53.7322 172.938C53.8455 173.266 53.8222 173.625 53.6672 173.936L48.2593 184.793C48.1501 185.013 47.9807 185.197 47.7704 185.327C47.5601 185.456 47.3173 185.524 47.0695 185.524Z" fill="white"/>
<path d="M25.8607 184.303C25.6867 184.303 25.5144 184.27 25.3537 184.204C25.1929 184.138 25.0469 184.042 24.9241 183.92C24.6757 183.675 24.5361 183.343 24.5361 182.996C24.5361 182.65 24.6757 182.317 24.9241 182.072L49.0952 158.226C49.3436 157.981 49.6805 157.843 50.0318 157.843C50.3831 157.843 50.72 157.981 50.9684 158.226C51.2168 158.471 51.3564 158.803 51.3564 159.15C51.3564 159.496 51.2168 159.829 50.9684 160.074L26.7973 183.92C26.6744 184.042 26.5284 184.138 26.3677 184.204C26.2069 184.27 26.0346 184.303 25.8607 184.303Z" fill="white"/>
<path d="M227.682 71.9106C247.81 71.9106 264.127 55.8129 264.127 35.9553C264.127 16.0977 247.81 0 227.682 0C207.554 0 191.237 16.0977 191.237 35.9553C191.237 55.8129 207.554 71.9106 227.682 71.9106Z" fill="#A3142C"/>
<path d="M212.989 51.7385C211.579 51.7371 210.227 51.1838 209.229 50.2001C208.232 49.2164 207.671 47.8826 207.669 46.4914C207.669 45.9104 207.903 45.3532 208.32 44.9424C208.736 44.5316 209.301 44.3008 209.89 44.3008C210.479 44.301 211.043 44.5319 211.459 44.9427C211.876 45.3535 212.109 45.9105 212.109 46.4914C212.11 46.7211 212.203 46.9414 212.367 47.1038C212.532 47.2663 212.755 47.3578 212.988 47.3582C213.526 46.8447 214.104 43.267 214.527 40.655C214.79 39.025 215.075 37.2381 215.459 35.3607C215.828 33.5436 216.107 31.8139 216.361 30.2357C217.263 24.6592 218.041 19.8419 222.286 19.8419C223.696 19.8434 225.048 20.3967 226.046 21.3806C227.043 22.3645 227.604 23.6984 227.605 25.0898C227.611 25.3809 227.557 25.6702 227.448 25.9407C227.339 26.2112 227.177 26.4576 226.97 26.6653C226.763 26.8731 226.517 27.0382 226.244 27.1509C225.972 27.2635 225.68 27.3216 225.385 27.3216C225.09 27.3216 224.798 27.2635 224.526 27.1509C224.254 27.0382 224.007 26.8731 223.8 26.6653C223.594 26.4576 223.431 26.2112 223.322 25.9407C223.213 25.6702 223.16 25.3809 223.165 25.0898C223.165 24.8598 223.072 24.6393 222.907 24.4766C222.742 24.314 222.519 24.2225 222.286 24.2223C221.747 24.7357 221.17 28.3135 220.747 30.9254C220.484 32.5554 220.199 34.3423 219.815 36.2198C219.446 38.0368 219.167 39.7666 218.912 41.3447C218.011 46.9221 217.231 51.7385 212.989 51.7385Z" fill="white"/>
<path d="M222.286 37.9804H212.989C212.4 37.9804 211.836 37.7497 211.419 37.3391C211.003 36.9284 210.769 36.3715 210.769 35.7906C210.769 35.2097 211.002 34.6525 211.419 34.2417C211.835 33.8308 212.4 33.6001 212.989 33.6001H222.286C222.581 33.5946 222.874 33.6472 223.148 33.7548C223.423 33.8624 223.672 34.0229 223.883 34.2268C224.093 34.4307 224.261 34.674 224.375 34.9424C224.489 35.2109 224.548 35.4991 224.548 35.7902C224.548 36.0814 224.489 36.3696 224.375 36.638C224.261 36.9065 224.093 37.1498 223.883 37.3537C223.672 37.5576 223.423 37.7181 223.148 37.8257C222.874 37.9333 222.581 37.9859 222.286 37.9804Z" fill="white"/>
<path d="M229.771 36.236C229.777 35.0643 229.891 33.8955 230.111 32.7441C230.33 31.559 230.644 30.3931 231.051 29.2576C231.403 28.2476 231.863 27.2775 232.423 26.3633H235.289C234.785 27.424 234.358 28.5188 234.012 29.6395C233.665 30.7506 233.393 31.8833 233.2 33.0302C233.017 34.0902 232.923 35.1631 232.917 36.2383C232.918 37.1338 232.999 38.0275 233.159 38.909C233.341 39.886 233.597 40.8482 233.925 41.7878C234.274 42.8115 234.73 43.9552 235.291 45.2186H232.424C231.572 43.8389 230.907 42.3547 230.446 40.8042C230.003 39.3208 229.776 37.7826 229.771 36.236ZM241.638 45.2163C242.206 43.9322 242.663 42.7783 243.009 41.7545C243.333 40.8165 243.585 39.8561 243.764 38.8812C243.919 38.0078 243.998 37.1228 243.999 36.236C243.994 35.1608 243.899 34.0878 243.717 33.0278C243.524 31.8819 243.255 30.7499 242.909 29.6395C242.562 28.5208 242.139 27.4269 241.64 26.3657H244.496C245.062 27.2774 245.524 28.248 245.873 29.2599C246.277 30.396 246.59 31.5618 246.808 32.7464C247.028 33.8978 247.142 35.0666 247.147 36.2383C247.143 37.7874 246.913 39.3279 246.466 40.8127C246.004 42.3598 245.341 43.8413 244.493 45.2202L241.638 45.2163Z" fill="white"/>
</g>
<defs>
<clipPath id="clip0_24_20">
<rect width="627" height="540" fill="white"/>
</clipPath>
</defs>
</svg>
